Interstate-Compressed_Light.ufo
<glyph name="exclam" format="1">
  <advance width="188"/>
  <unicode hex="0021"/>
  <outline>
    <contour>
      <point x="126" y="336" type="line"/>
      <point x="114" y="152" type="line"/>
      <point x="74" y="152" type="line"/>
      <point x="62" y="336" type="line"/>
      <point x="62" y="700" type="line"/>
      <point x="126" y="700" type="line"/>
    </contour>
    <contour>
      <point x="137" y="33" type="curve" smooth="yes"/>
      <point x="137" y="8"/>
      <point x="121" y="-11"/>
      <point x="94" y="-11" type="curve" smooth="yes"/>
      <point x="69" y="-11"/>
      <point x="51" y="8"/>
      <point x="51" y="33" type="curve" smooth="yes"/>
      <point x="51" y="59"/>
      <point x="69" y="78"/>
      <point x="94" y="78" type="curve" smooth="yes"/>
      <point x="121" y="78"/>
      <point x="137" y="59"/>
    </contour>
  </outline>
</glyph>
<glyph name="quotedbl" format="1">
  <advance width="330"/>
  <unicode hex="0022"/>
  <outline>
    <contour>
      <point x="277" y="700" type="line"/>
      <point x="260" y="373" type="line"/>
      <point x="220" y="373" type="line"/>
      <point x="203" y="700" type="line"/>
    </contour>
    <contour>
      <point x="127" y="700" type="line"/>
      <point x="110" y="373" type="line"/>
      <point x="70" y="373" type="line"/>
      <point x="53" y="700" type="line"/>
    </contour>
  </outline>
</glyph>
<glyph name="numbersign" format="1">
  <advance width="425"/>
  <unicode hex="0023"/>
  <outline>
    <contour>
      <point x="395" y="172" type="line"/>
      <point x="330" y="172" type="line"/>
      <point x="330" y="0" type="line"/>
      <point x="268" y="0" type="line"/>
      <point x="268" y="172" type="line"/>
      <point x="157" y="172" type="line"/>
      <point x="157" y="0" type="line"/>
      <point x="95" y="0" type="line"/>
      <point x="95" y="172" type="line"/>
      <point x="30" y="172" type="line"/>
      <point x="30" y="230" type="line"/>
      <point x="95" y="230" type="line"/>
      <point x="95" y="471" type="line"/>
      <point x="30" y="471" type="line"/>
      <point x="30" y="529" type="line"/>
      <point x="95" y="529" type="line"/>
      <point x="95" y="700" type="line"/>
      <point x="157" y="700" type="line"/>
      <point x="157" y="529" type="line"/>
      <point x="268" y="529" type="line"/>
      <point x="268" y="700" type="line"/>
      <point x="330" y="700" type="line"/>
      <point x="330" y="529" type="line"/>
      <point x="395" y="529" type="line"/>
      <point x="395" y="471" type="line"/>
      <point x="330" y="471" type="line"/>
      <point x="330" y="230" type="line"/>
      <point x="395" y="230" type="line"/>
    </contour>
    <contour>
      <point x="268" y="230" type="line"/>
      <point x="268" y="471" type="line"/>
      <point x="157" y="471" type="line"/>
      <point x="157" y="230" type="line"/>
    </contour>
  </outline>
</glyph>
<glyph name="dollar" format="1">
  <advance width="324"/>
  <unicode hex="0024"/>
  <outline>
    <contour>
      <point x="289" y="143" type="curve" smooth="yes"/>
      <point x="289" y="64"/>
      <point x="252" y="9"/>
      <point x="191" y="-5" type="curve"/>
      <point x="191" y="-66" type="line"/>
      <point x="124" y="-66" type="line"/>
      <point x="124" y="-4" type="line"/>
      <point x="67" y="11"/>
      <point x="38" y="66"/>
      <point x="26" y="154" type="curve"/>
      <point x="91" y="169" type="line"/>
      <point x="106" y="77"/>
      <point x="129" y="54"/>
      <point x="160" y="54" type="curve" smooth="yes"/>
      <point x="201" y="54"/>
      <point x="224" y="85"/>
      <point x="224" y="134" type="curve" smooth="yes"/>
      <point x="224" y="199"/>
      <point x="195" y="270"/>
      <point x="129" y="343" type="curve" smooth="yes"/>
      <point x="54" y="427"/>
      <point x="33" y="480"/>
      <point x="33" y="567" type="curve" smooth="yes"/>
      <point x="33" y="634"/>
      <point x="65" y="689"/>
      <point x="122" y="704" type="curve"/>
      <point x="122" y="766" type="line"/>
      <point x="189" y="766" type="line"/>
      <point x="189" y="704" type="line"/>
      <point x="245" y="691"/>
      <point x="269" y="643"/>
      <point x="286" y="573" type="curve"/>
      <point x="221" y="554" type="line"/>
      <point x="202" y="626"/>
      <point x="186" y="646"/>
      <point x="152" y="646" type="curve" smooth="yes"/>
      <point x="116" y="646"/>
      <point x="98" y="609"/>
      <point x="98" y="573" type="curve" smooth="yes"/>
      <point x="98" y="517"/>
      <point x="112" y="473"/>
      <point x="178" y="399" type="curve" smooth="yes"/>
      <point x="254" y="315"/>
      <point x="289" y="236"/>
    </contour>
  </outline>
</glyph>
<glyph name="percent" format="1">
  <advance width="623"/>
  <unicode hex="0025"/>
  <outline>
    <contour>
      <point x="241" y="494" type="curve" smooth="yes"/>
      <point x="241" y="346"/>
      <point x="201" y="275"/>
      <point x="137" y="275" type="curve" smooth="yes"/>
      <point x="73" y="275"/>
      <point x="35" y="344"/>
      <point x="35" y="492" type="curve" smooth="yes"/>
      <point x="35" y="640"/>
      <point x="75" y="711"/>
      <point x="139" y="711" type="curve" smooth="yes"/>
      <point x="203" y="711"/>
      <point x="241" y="642"/>
    </contour>
    <contour>
      <point x="505" y="700" type="line"/>
      <point x="178" y="0" type="line"/>
      <point x="118" y="0" type="line"/>
      <point x="445" y="700" type="line"/>
    </contour>
    <contour>
      <point x="588" y="208" type="curve" smooth="yes"/>
      <point x="588" y="60"/>
      <point x="548" y="-11"/>
      <point x="484" y="-11" type="curve" smooth="yes"/>
      <point x="420" y="-11"/>
      <point x="382" y="58"/>
      <point x="382" y="206" type="curve" smooth="yes"/>
      <point x="382" y="354"/>
      <point x="422" y="425"/>
      <point x="486" y="425" type="curve" smooth="yes"/>
      <point x="550" y="425"/>
      <point x="588" y="356"/>
    </contour>
    <contour>
      <point x="183" y="492" type="curve" smooth="yes"/>
      <point x="183" y="602"/>
      <point x="167" y="655"/>
      <point x="137" y="655" type="curve" smooth="yes"/>
      <point x="107" y="655"/>
      <point x="93" y="604"/>
      <point x="93" y="494" type="curve" smooth="yes"/>
      <point x="93" y="384"/>
      <point x="109" y="331"/>
      <point x="139" y="331" type="curve" smooth="yes"/>
      <point x="169" y="331"/>
      <point x="183" y="382"/>
    </contour>
    <contour>
      <point x="530" y="206" type="curve" smooth="yes"/>
      <point x="530" y="316"/>
      <point x="514" y="369"/>
      <point x="484" y="369" type="curve" smooth="yes"/>
      <point x="454" y="369"/>
      <point x="440" y="318"/>
      <point x="440" y="208" type="curve" smooth="yes"/>
      <point x="440" y="98"/>
      <point x="456" y="45"/>
      <point x="486" y="45" type="curve" smooth="yes"/>
      <point x="516" y="45"/>
      <point x="530" y="96"/>
    </contour>
  </outline>
</glyph>
<glyph name="ampersand" format="1">
  <advance width="350"/>
  <unicode hex="0026"/>
  <outline>
    <contour>
      <point x="324" y="0" type="line"/>
      <point x="259" y="0" type="line"/>
      <point x="233" y="69" type="line"/>
      <point x="204" y="3"/>
      <point x="175" y="-11"/>
      <point x="131" y="-11" type="curve" smooth="yes"/>
      <point x="63" y="-11"/>
      <point x="29" y="57"/>
      <point x="29" y="165" type="curve" smooth="yes"/>
      <point x="29" y="246"/>
      <point x="59" y="322"/>
      <point x="111" y="390" type="curve"/>
      <point x="85" y="458" type="line" smooth="yes"/>
      <point x="64" y="514"/>
      <point x="54" y="548"/>
      <point x="54" y="585" type="curve" smooth="yes"/>
      <point x="54" y="654"/>
      <point x="96" y="711"/>
      <point x="165" y="711" type="curve" smooth="yes"/>
      <point x="236" y="711"/>
      <point x="265" y="656"/>
      <point x="283" y="585" type="curve"/>
      <point x="222" y="559" type="line"/>
      <point x="207" y="620"/>
      <point x="194" y="649"/>
      <point x="164" y="649" type="curve" smooth="yes"/>
      <point x="133" y="649"/>
      <point x="120" y="621"/>
      <point x="120" y="591" type="curve" smooth="yes"/>
      <point x="120" y="554"/>
      <point x="127" y="524"/>
      <point x="142" y="484" type="curve" smooth="yes"/>
      <point x="230" y="249" type="line"/>
      <point x="239" y="286"/>
      <point x="249" y="331"/>
      <point x="260" y="383" type="curve"/>
      <point x="315" y="367" type="line"/>
      <point x="296" y="280"/>
      <point x="279" y="212"/>
      <point x="264" y="159" type="curve"/>
    </contour>
    <contour>
      <point x="204" y="146" type="curve"/>
      <point x="136" y="324" type="line"/>
      <point x="110" y="280"/>
      <point x="95" y="227"/>
      <point x="95" y="174" type="curve" smooth="yes"/>
      <point x="95" y="95"/>
      <point x="109" y="51"/>
      <point x="140" y="51" type="curve" smooth="yes"/>
      <point x="163" y="51"/>
      <point x="179" y="62"/>
    </contour>
  </outline>
</glyph>
<glyph name="quotesingle" format="1">
  <advance width="180"/>
  <unicode hex="0027"/>
  <outline>
    <contour>
      <point x="127" y="700" type="line"/>
      <point x="110" y="373" type="line"/>
      <point x="70" y="373" type="line"/>
      <point x="53" y="700" type="line"/>
    </contour>
  </outline>
</glyph>
<glyph name="parenleft" format="1">
  <advance width="225"/>
  <unicode hex="0028"/>
  <outline>
    <contour>
      <point x="193" y="-83" type="curve"/>
      <point x="152" y="-110" type="line"/>
      <point x="71" y="12"/>
      <point x="37" y="143"/>
      <point x="37" y="302" type="curve" smooth="yes"/>
      <point x="37" y="464"/>
      <point x="71" y="592"/>
      <point x="152" y="714" type="curve"/>
      <point x="193" y="687" type="line"/>
      <point x="133" y="585"/>
      <point x="103" y="450"/>
      <point x="103" y="305" type="curve" smooth="yes"/>
      <point x="103" y="156"/>
      <point x="133" y="19"/>
    </contour>
  </outline>
</glyph>
<glyph name="parenright" format="1">
  <advance width="225"/>
  <unicode hex="0029"/>
  <outline>
    <contour>
      <point x="188" y="304" type="curve" smooth="yes"/>
      <point x="188" y="142"/>
      <point x="154" y="12"/>
      <point x="73" y="-110" type="curve"/>
      <point x="32" y="-83" type="line"/>
      <point x="92" y="19"/>
      <point x="122" y="156"/>
      <point x="122" y="301" type="curve" smooth="yes"/>
      <point x="122" y="450"/>
      <point x="92" y="585"/>
      <point x="32" y="687" type="curve"/>
      <point x="73" y="714" type="line"/>
      <point x="154" y="592"/>
      <point x="188" y="463"/>
    </contour>
  </outline>
</glyph>
<glyph name="asterisk" format="1">
  <advance width="320"/>
  <unicode hex="002A"/>
  <outline>
    <contour>
      <point x="290" y="524" type="line"/>
      <point x="262" y="478" type="line"/>
      <point x="174" y="544" type="line"/>
      <point x="187" y="435" type="line"/>
      <point x="133" y="435" type="line"/>
      <point x="146" y="544" type="line"/>
      <point x="58" y="478" type="line"/>
      <point x="30" y="524" type="line"/>
      <point x="131" y="566" type="line"/>
      <point x="30" y="610" type="line"/>
      <point x="58" y="656" type="line"/>
      <point x="146" y="588" type="line"/>
      <point x="133" y="698" type="line"/>
      <point x="187" y="698" type="line"/>
      <point x="174" y="588" type="line"/>
      <point x="262" y="656" type="line"/>
      <point x="290" y="610" type="line"/>
      <point x="189" y="567" type="line"/>
    </contour>
  </outline>
</glyph>
<glyph name="plus" format="1">
  <advance width="319"/>
  <unicode hex="002B"/>
  <outline>
    <contour>
      <point x="296" y="314" type="line"/>
      <point x="190" y="314" type="line"/>
      <point x="190" y="187" type="line"/>
      <point x="129" y="187" type="line"/>
      <point x="129" y="314" type="line"/>
      <point x="23" y="314" type="line"/>
      <point x="23" y="374" type="line"/>
      <point x="129" y="374" type="line"/>
      <point x="129" y="501" type="line"/>
      <point x="190" y="501" type="line"/>
      <point x="190" y="374" type="line"/>
      <point x="296" y="374" type="line"/>
    </contour>
  </outline>
</glyph>
<glyph name="comma" format="1">
  <advance width="148"/>
  <unicode hex="002C"/>
  <outline>
    <contour>
      <point x="117" y="72" type="line"/>
      <point x="73" y="-94" type="line"/>
      <point x="36" y="-94" type="line"/>
      <point x="46" y="72" type="line"/>
    </contour>
  </outline>
</glyph>
<glyph name="hyphen" format="1">
  <advance width="233"/>
  <unicode hex="002D"/>
  <unicode hex="2010"/>
  <unicode hex="2011"/>
  <outline>
    <contour>
      <point x="200" y="334" type="line"/>
      <point x="33" y="334" type="line"/>
      <point x="33" y="398" type="line"/>
      <point x="200" y="398" type="line"/>
    </contour>
  </outline>
</glyph>
<glyph name="period" format="1">
  <advance width="148"/>
  <unicode hex="002E"/>
  <outline>
    <contour>
      <point x="118" y="33" type="curve" smooth="yes"/>
      <point x="118" y="8"/>
      <point x="102" y="-11"/>
      <point x="75" y="-11" type="curve" smooth="yes"/>
      <point x="50" y="-11"/>
      <point x="32" y="8"/>
      <point x="32" y="33" type="curve" smooth="yes"/>
      <point x="32" y="59"/>
      <point x="50" y="78"/>
      <point x="75" y="78" type="curve" smooth="yes"/>
      <point x="102" y="78"/>
      <point x="118" y="59"/>
    </contour>
  </outline>
</glyph>
<glyph name="zero" format="1">
  <advance width="360"/>
  <unicode hex="0030"/>
  <outline>
    <contour>
      <point x="320" y="350" type="curve" smooth="yes"/>
      <point x="320" y="114"/>
      <point x="284" y="-11"/>
      <point x="180" y="-11" type="curve" smooth="yes"/>
      <point x="76" y="-11"/>
      <point x="40" y="114"/>
      <point x="40" y="350" type="curve" smooth="yes"/>
      <point x="40" y="586"/>
      <point x="76" y="711"/>
      <point x="180" y="711" type="curve" smooth="yes"/>
      <point x="284" y="711"/>
      <point x="320" y="586"/>
    </contour>
    <contour>
      <point x="255" y="350" type="curve" smooth="yes"/>
      <point x="255" y="558"/>
      <point x="230" y="649"/>
      <point x="179" y="649" type="curve" smooth="yes"/>
      <point x="128" y="649"/>
      <point x="105" y="558"/>
      <point x="105" y="350" type="curve" smooth="yes"/>
      <point x="105" y="142"/>
      <point x="130" y="51"/>
      <point x="181" y="51" type="curve" smooth="yes"/>
      <point x="232" y="51"/>
      <point x="255" y="142"/>
    </contour>
  </outline>
</glyph>
<glyph name="one" format="1">
  <advance width="210"/>
  <unicode hex="0031"/>
  <outline>
    <contour>
      <point x="150" y="0" type="line"/>
      <point x="87" y="0" type="line"/>
      <point x="87" y="588" type="line"/>
      <point x="10" y="588" type="line"/>
      <point x="10" y="631" type="line"/>
      <point x="66" y="636"/>
      <point x="87" y="650"/>
      <point x="99" y="700" type="curve"/>
      <point x="150" y="700" type="line"/>
    </contour>
  </outline>
</glyph>
<glyph name="two" format="1">
  <advance width="318"/>
  <unicode hex="0032"/>
  <outline>
    <contour>
      <point x="281" y="0" type="line"/>
      <point x="27" y="0" type="line"/>
      <point x="27" y="195"/>
      <point x="66" y="277"/>
      <point x="156" y="391" type="curve" smooth="yes"/>
      <point x="196" y="441"/>
      <point x="214" y="494"/>
      <point x="214" y="543" type="curve" smooth="yes"/>
      <point x="214" y="613"/>
      <point x="197" y="649"/>
      <point x="159" y="649" type="curve" smooth="yes"/>
      <point x="123" y="649"/>
      <point x="109" y="623"/>
      <point x="91" y="536" type="curve"/>
      <point x="30" y="554" type="line"/>
      <point x="48" y="650"/>
      <point x="78" y="711"/>
      <point x="166" y="711" type="curve" smooth="yes"/>
      <point x="244" y="711"/>
      <point x="280" y="643"/>
      <point x="280" y="546" type="curve" smooth="yes"/>
      <point x="280" y="477"/>
      <point x="249" y="409"/>
      <point x="195" y="338" type="curve" smooth="yes"/>
      <point x="118" y="238"/>
      <point x="94" y="173"/>
      <point x="94" y="61" type="curve"/>
      <point x="281" y="61" type="line"/>
    </contour>
  </outline>
</glyph>
<glyph name="three" format="1">
  <advance width="330"/>
  <unicode hex="0033"/>
  <outline>
    <contour>
      <point x="286" y="201" type="curve" smooth="yes"/>
      <point x="286" y="71"/>
      <point x="237" y="-11"/>
      <point x="152" y="-11" type="curve" smooth="yes"/>
      <point x="80" y="-11"/>
      <point x="45" y="38"/>
      <point x="22" y="142" type="curve"/>
      <point x="85" y="159" type="line"/>
      <point x="103" y="80"/>
      <point x="121" y="51"/>
      <point x="157" y="51" type="curve" smooth="yes"/>
      <point x="204" y="51"/>
      <point x="220" y="119"/>
      <point x="220" y="198" type="curve" smooth="yes"/>
      <point x="220" y="304"/>
      <point x="192" y="345"/>
      <point x="126" y="345" type="curve" smooth="yes"/>
      <point x="111" y="345" type="line"/>
      <point x="111" y="407" type="line"/>
      <point x="134" y="407" type="line" smooth="yes"/>
      <point x="190" y="407"/>
      <point x="214" y="446"/>
      <point x="214" y="543" type="curve" smooth="yes"/>
      <point x="214" y="608"/>
      <point x="190" y="649"/>
      <point x="156" y="649" type="curve" smooth="yes"/>
      <point x="120" y="649"/>
      <point x="107" y="619"/>
      <point x="85" y="546" type="curve"/>
      <point x="24" y="564" type="line"/>
      <point x="47" y="648"/>
      <point x="74" y="711"/>
      <point x="159" y="711" type="curve" smooth="yes"/>
      <point x="239" y="711"/>
      <point x="280" y="635"/>
      <point x="280" y="545" type="curve" smooth="yes"/>
      <point x="280" y="446"/>
      <point x="251" y="402"/>
      <point x="205" y="380" type="curve"/>
      <point x="251" y="362"/>
      <point x="286" y="329"/>
    </contour>
  </outline>
</glyph>
<glyph name="four" format="1">
  <advance width="328"/>
  <unicode hex="0034"/>
  <outline>
    <contour>
      <point x="307" y="195" type="line"/>
      <point x="261" y="195" type="line"/>
      <point x="261" y="0" type="line"/>
      <point x="202" y="0" type="line"/>
      <point x="202" y="195" type="line"/>
      <point x="14" y="195" type="line"/>
      <point x="14" y="240" type="line"/>
      <point x="211" y="700" type="line"/>
      <point x="261" y="700" type="line"/>
      <point x="261" y="251" type="line"/>
      <point x="307" y="251" type="line"/>
    </contour>
    <contour>
      <point x="203" y="564" type="curve"/>
      <point x="195" y="535"/>
      <point x="177" y="489"/>
      <point x="164" y="457" type="curve" smooth="yes"/>
      <point x="116" y="340" type="line" smooth="yes"/>
      <point x="101" y="303"/>
      <point x="88" y="273"/>
      <point x="77" y="251" type="curve"/>
      <point x="83" y="251"/>
      <point x="92" y="251"/>
      <point x="102" y="251" type="curve" smooth="yes"/>
      <point x="202" y="251" type="line"/>
      <point x="202" y="479" type="line" smooth="yes"/>
      <point x="202" y="512"/>
      <point x="203" y="535"/>
    </contour>
  </outline>
</glyph>
<glyph name="five" format="1">
  <advance width="330"/>
  <unicode hex="0035"/>
  <outline>
    <contour>
      <point x="293" y="238" type="curve" smooth="yes"/>
      <point x="293" y="96"/>
      <point x="261" y="-11"/>
      <point x="156" y="-11" type="curve" smooth="yes"/>
      <point x="73" y="-11"/>
      <point x="44" y="68"/>
      <point x="34" y="143" type="curve"/>
      <point x="96" y="160" type="line"/>
      <point x="105" y="106"/>
      <point x="120" y="51"/>
      <point x="160" y="51" type="curve" smooth="yes"/>
      <point x="214" y="51"/>
      <point x="227" y="128"/>
      <point x="227" y="235" type="curve" smooth="yes"/>
      <point x="227" y="321"/>
      <point x="208" y="392"/>
      <point x="162" y="392" type="curve" smooth="yes"/>
      <point x="127" y="392"/>
      <point x="108" y="369"/>
      <point x="91" y="327" type="curve"/>
      <point x="39" y="336" type="line"/>
      <point x="53" y="700" type="line"/>
      <point x="281" y="700" type="line"/>
      <point x="281" y="636" type="line"/>
      <point x="112" y="636" type="line"/>
      <point x="101" y="422" type="line"/>
      <point x="115" y="440"/>
      <point x="139" y="454"/>
      <point x="174" y="454" type="curve" smooth="yes"/>
      <point x="253" y="454"/>
      <point x="293" y="382"/>
    </contour>
  </outline>
</glyph>
<glyph name="six" format="1">
  <advance width="331"/>
  <unicode hex="0036"/>
  <outline>
    <contour>
      <point x="305" y="205" type="curve" smooth="yes"/>
      <point x="305" y="87"/>
      <point x="258" y="-11"/>
      <point x="167" y="-11" type="curve" smooth="yes"/>
      <point x="79" y="-11"/>
      <point x="33" y="77"/>
      <point x="33" y="229" type="curve" smooth="yes"/>
      <point x="33" y="500"/>
      <point x="113" y="621"/>
      <point x="222" y="711" type="curve"/>
      <point x="258" y="659" type="line"/>
      <point x="172" y="598"/>
      <point x="116" y="492"/>
      <point x="100" y="369" type="curve"/>
      <point x="118" y="397"/>
      <point x="146" y="419"/>
      <point x="180" y="419" type="curve" smooth="yes"/>
      <point x="267" y="419"/>
      <point x="305" y="324"/>
    </contour>
    <contour>
      <point x="240" y="203" type="curve" smooth="yes"/>
      <point x="240" y="292"/>
      <point x="218" y="357"/>
      <point x="170" y="357" type="curve" smooth="yes"/>
      <point x="115" y="357"/>
      <point x="98" y="286"/>
      <point x="98" y="205" type="curve" smooth="yes"/>
      <point x="98" y="112"/>
      <point x="126" y="51"/>
      <point x="168" y="51" type="curve" smooth="yes"/>
      <point x="212" y="51"/>
      <point x="240" y="114"/>
    </contour>
  </outline>
</glyph>
<glyph name="seven" format="1">
  <advance width="315"/>
  <unicode hex="0037"/>
  <outline>
    <contour>
      <point x="281" y="642" type="line"/>
      <point x="162" y="450"/>
      <point x="153" y="267"/>
      <point x="153" y="0" type="curve"/>
      <point x="88" y="0" type="line"/>
      <point x="88" y="247"/>
      <point x="108" y="468"/>
      <point x="213" y="639" type="curve"/>
      <point x="19" y="639" type="line"/>
      <point x="19" y="700" type="line"/>
      <point x="281" y="700" type="line"/>
    </contour>
  </outline>
</glyph>
<glyph name="eight" format="1">
  <advance width="332"/>
  <unicode hex="0038"/>
  <outline>
    <contour>
      <point x="297" y="209" type="curve" smooth="yes"/>
      <point x="297" y="61"/>
      <point x="240" y="-11"/>
      <point x="164" y="-11" type="curve" smooth="yes"/>
      <point x="92" y="-11"/>
      <point x="35" y="64"/>
      <point x="35" y="208" type="curve" smooth="yes"/>
      <point x="35" y="302"/>
      <point x="62" y="350"/>
      <point x="101" y="383" type="curve"/>
      <point x="68" y="410"/>
      <point x="41" y="460"/>
      <point x="41" y="531" type="curve" smooth="yes"/>
      <point x="41" y="632"/>
      <point x="92" y="711"/>
      <point x="166" y="711" type="curve" smooth="yes"/>
      <point x="246" y="711"/>
      <point x="292" y="628"/>
      <point x="292" y="532" type="curve" smooth="yes"/>
      <point x="292" y="461"/>
      <point x="265" y="414"/>
      <point x="231" y="385" type="curve"/>
      <point x="271" y="353"/>
      <point x="297" y="302"/>
    </contour>
    <contour>
      <point x="227" y="530" type="curve" smooth="yes"/>
      <point x="227" y="598"/>
      <point x="204" y="649"/>
      <point x="166" y="649" type="curve" smooth="yes"/>
      <point x="129" y="649"/>
      <point x="106" y="601"/>
      <point x="106" y="532" type="curve" smooth="yes"/>
      <point x="106" y="467"/>
      <point x="130" y="416"/>
      <point x="166" y="416" type="curve" smooth="yes"/>
      <point x="203" y="416"/>
      <point x="227" y="466"/>
    </contour>
    <contour>
      <point x="232" y="208" type="curve" smooth="yes"/>
      <point x="232" y="291"/>
      <point x="207" y="354"/>
      <point x="165" y="354" type="curve" smooth="yes"/>
      <point x="123" y="354"/>
      <point x="100" y="291"/>
      <point x="100" y="209" type="curve" smooth="yes"/>
      <point x="100" y="115"/>
      <point x="125" y="51"/>
      <point x="167" y="51" type="curve" smooth="yes"/>
      <point x="208" y="51"/>
      <point x="232" y="113"/>
    </contour>
  </outline>
</glyph>
<glyph name="nine" format="1">
  <advance width="331"/>
  <unicode hex="0039"/>
  <outline>
    <contour>
      <point x="298" y="471" type="curve" smooth="yes"/>
      <point x="298" y="200"/>
      <point x="218" y="79"/>
      <point x="109" y="-11" type="curve"/>
      <point x="73" y="41" type="line"/>
      <point x="159" y="102"/>
      <point x="215" y="208"/>
      <point x="231" y="331" type="curve"/>
      <point x="213" y="303"/>
      <point x="185" y="281"/>
      <point x="151" y="281" type="curve" smooth="yes"/>
      <point x="64" y="281"/>
      <point x="26" y="376"/>
      <point x="26" y="495" type="curve" smooth="yes"/>
      <point x="26" y="613"/>
      <point x="73" y="711"/>
      <point x="164" y="711" type="curve" smooth="yes"/>
      <point x="252" y="711"/>
      <point x="298" y="623"/>
    </contour>
    <contour>
      <point x="233" y="495" type="curve" smooth="yes"/>
      <point x="233" y="588"/>
      <point x="205" y="649"/>
      <point x="163" y="649" type="curve" smooth="yes"/>
      <point x="119" y="649"/>
      <point x="91" y="586"/>
      <point x="91" y="497" type="curve" smooth="yes"/>
      <point x="91" y="408"/>
      <point x="113" y="343"/>
      <point x="161" y="343" type="curve" smooth="yes"/>
      <point x="216" y="343"/>
      <point x="233" y="414"/>
    </contour>
  </outline>
</glyph>
<glyph name="colon" format="1">
  <advance width="148"/>
  <unicode hex="003A"/>
  <outline>
    <contour>
      <point x="118" y="491" type="curve" smooth="yes"/>
      <point x="118" y="466"/>
      <point x="102" y="447"/>
      <point x="75" y="447" type="curve" smooth="yes"/>
      <point x="50" y="447"/>
      <point x="32" y="466"/>
      <point x="32" y="491" type="curve" smooth="yes"/>
      <point x="32" y="517"/>
      <point x="50" y="536"/>
      <point x="75" y="536" type="curve" smooth="yes"/>
      <point x="102" y="536"/>
      <point x="118" y="517"/>
    </contour>
    <contour>
      <point x="118" y="33" type="curve" smooth="yes"/>
      <point x="118" y="8"/>
      <point x="102" y="-11"/>
      <point x="75" y="-11" type="curve" smooth="yes"/>
      <point x="50" y="-11"/>
      <point x="32" y="8"/>
      <point x="32" y="33" type="curve" smooth="yes"/>
      <point x="32" y="59"/>
      <point x="50" y="78"/>
      <point x="75" y="78" type="curve" smooth="yes"/>
      <point x="102" y="78"/>
      <point x="118" y="59"/>
    </contour>
  </outline>
</glyph>
<glyph name="semicolon" format="1">
  <advance width="148"/>
  <unicode hex="003B"/>
  <outline>
    <contour>
      <point x="118" y="491" type="curve" smooth="yes"/>
      <point x="118" y="466"/>
      <point x="102" y="447"/>
      <point x="75" y="447" type="curve" smooth="yes"/>
      <point x="50" y="447"/>
      <point x="32" y="466"/>
      <point x="32" y="491" type="curve" smooth="yes"/>
      <point x="32" y="517"/>
      <point x="50" y="536"/>
      <point x="75" y="536" type="curve" smooth="yes"/>
      <point x="102" y="536"/>
      <point x="118" y="517"/>
    </contour>
    <contour>
      <point x="109" y="72" type="line"/>
      <point x="65" y="-94" type="line"/>
      <point x="28" y="-94" type="line"/>
      <point x="38" y="72" type="line"/>
    </contour>
  </outline>
</glyph>
<glyph name="less" format="1">
  <advance width="250"/>
  <unicode hex="003C"/>
  <outline>
    <contour>
      <point x="220" y="120" type="line"/>
      <point x="25" y="321" type="line"/>
      <point x="25" y="367" type="line"/>
      <point x="220" y="568" type="line"/>
      <point x="220" y="483" type="line"/>
      <point x="75" y="345" type="line"/>
      <point x="220" y="206" type="line"/>
    </contour>
  </outline>
</glyph>
<glyph name="equal" format="1">
  <advance width="355"/>
  <unicode hex="003D"/>
  <outline>
    <contour>
      <point x="310" y="397" type="line"/>
      <point x="45" y="397" type="line"/>
      <point x="45" y="460" type="line"/>
      <point x="310" y="460" type="line"/>
    </contour>
    <contour>
      <point x="310" y="228" type="line"/>
      <point x="45" y="228" type="line"/>
      <point x="45" y="291" type="line"/>
      <point x="310" y="291" type="line"/>
    </contour>
  </outline>
</glyph>
<glyph name="greater" format="1">
  <advance width="250"/>
  <unicode hex="003E"/>
  <outline>
    <contour>
      <point x="225" y="321" type="line"/>
      <point x="30" y="120" type="line"/>
      <point x="30" y="205" type="line"/>
      <point x="175" y="343" type="line"/>
      <point x="30" y="482" type="line"/>
      <point x="30" y="568" type="line"/>
      <point x="225" y="367" type="line"/>
    </contour>
  </outline>
</glyph>
<glyph name="question" format="1">
  <advance width="305"/>
  <unicode hex="003F"/>
  <outline>
    <contour>
      <point x="274" y="547" type="curve" smooth="yes"/>
      <point x="274" y="482"/>
      <point x="250" y="417"/>
      <point x="209" y="364" type="curve" smooth="yes"/>
      <point x="174" y="319"/>
      <point x="162" y="269"/>
      <point x="162" y="167" type="curve"/>
      <point x="102" y="167" type="line"/>
      <point x="102" y="290"/>
      <point x="112" y="343"/>
      <point x="165" y="410" type="curve" smooth="yes"/>
      <point x="196" y="449"/>
      <point x="208" y="499"/>
      <point x="208" y="544" type="curve" smooth="yes"/>
      <point x="208" y="605"/>
      <point x="195" y="649"/>
      <point x="153" y="649" type="curve" smooth="yes"/>
      <point x="117" y="649"/>
      <point x="103" y="622"/>
      <point x="85" y="536" type="curve"/>
      <point x="24" y="554" type="line"/>
      <point x="42" y="650"/>
      <point x="72" y="711"/>
      <point x="159" y="711" type="curve" smooth="yes"/>
      <point x="239" y="711"/>
      <point x="274" y="641"/>
    </contour>
    <contour>
      <point x="175" y="33" type="curve" smooth="yes"/>
      <point x="175" y="8"/>
      <point x="159" y="-11"/>
      <point x="132" y="-11" type="curve" smooth="yes"/>
      <point x="107" y="-11"/>
      <point x="89" y="8"/>
      <point x="89" y="33" type="curve" smooth="yes"/>
      <point x="89" y="59"/>
      <point x="107" y="78"/>
      <point x="132" y="78" type="curve" smooth="yes"/>
      <point x="159" y="78"/>
      <point x="175" y="59"/>
    </contour>
  </outline>
</glyph>
<glyph name="at" format="1">
  <advance width="483"/>
  <unicode hex="0040"/>
  <outline>
    <contour>
      <point x="446" y="360" type="curve" smooth="yes"/>
      <point x="446" y="200"/>
      <point x="414" y="154"/>
      <point x="358" y="154" type="curve" smooth="yes"/>
      <point x="327" y="154"/>
      <point x="311" y="166"/>
      <point x="299" y="187" type="curve"/>
      <point x="277" y="165"/>
      <point x="258" y="152"/>
      <point x="226" y="152" type="curve" smooth="yes"/>
      <point x="177" y="152"/>
      <point x="153" y="197"/>
      <point x="153" y="282" type="curve" smooth="yes"/>
      <point x="153" y="371"/>
      <point x="185" y="412"/>
      <point x="238" y="412" type="curve" smooth="yes"/>
      <point x="256" y="412"/>
      <point x="265" y="407"/>
      <point x="275" y="400" type="curve"/>
      <point x="275" y="464" type="line" smooth="yes"/>
      <point x="275" y="499"/>
      <point x="268" y="515"/>
      <point x="242" y="515" type="curve" smooth="yes"/>
      <point x="226" y="515"/>
      <point x="211" y="505"/>
      <point x="190" y="484" type="curve"/>
      <point x="164" y="516" type="line"/>
      <point x="188" y="543"/>
      <point x="217" y="561"/>
      <point x="248" y="561" type="curve" smooth="yes"/>
      <point x="295" y="561"/>
      <point x="320" y="541"/>
      <point x="320" y="466" type="curve" smooth="yes"/>
      <point x="320" y="262" type="line" smooth="yes"/>
      <point x="320" y="221"/>
      <point x="331" y="198"/>
      <point x="358" y="198" type="curve" smooth="yes"/>
      <point x="387" y="198"/>
      <point x="400" y="239"/>
      <point x="400" y="361" type="curve" smooth="yes"/>
      <point x="400" y="558"/>
      <point x="340" y="667"/>
      <point x="242" y="667" type="curve" smooth="yes"/>
      <point x="135" y="667"/>
      <point x="83" y="549"/>
      <point x="83" y="351" type="curve" smooth="yes"/>
      <point x="83" y="152"/>
      <point x="134" y="33"/>
      <point x="245" y="33" type="curve" smooth="yes"/>
      <point x="273" y="33"/>
      <point x="301" y="45"/>
      <point x="321" y="62" type="curve"/>
      <point x="342" y="27" type="line"/>
      <point x="314" y="4"/>
      <point x="279" y="-11"/>
      <point x="242" y="-11" type="curve" smooth="yes"/>
      <point x="114" y="-11"/>
      <point x="37" y="124"/>
      <point x="37" y="350" type="curve" smooth="yes"/>
      <point x="37" y="576"/>
      <point x="114" y="711"/>
      <point x="242" y="711" type="curve" smooth="yes"/>
      <point x="371" y="711"/>
      <point x="446" y="568"/>
    </contour>
    <contour>
      <point x="275" y="219" type="curve"/>
      <point x="275" y="356" type="line"/>
      <point x="264" y="364"/>
      <point x="257" y="368"/>
      <point x="239" y="368" type="curve" smooth="yes"/>
      <point x="209" y="368"/>
      <point x="200" y="336"/>
      <point x="200" y="283" type="curve" smooth="yes"/>
      <point x="200" y="229"/>
      <point x="210" y="195"/>
      <point x="235" y="195" type="curve" smooth="yes"/>
      <point x="249" y="195"/>
      <point x="264" y="204"/>
    </contour>
  </outline>
</glyph>
<glyph name="A" format="1">
  <advance width="362"/>
  <unicode hex="0041"/>
  <outline>
    <contour>
      <point x="333" y="0" type="line"/>
      <point x="264" y="0" type="line"/>
      <point x="236" y="184" type="line"/>
      <point x="124" y="184" type="line"/>
      <point x="96" y="0" type="line"/>
      <point x="29" y="0" type="line"/>
      <point x="146" y="700" type="line"/>
      <point x="216" y="700" type="line"/>
    </contour>
    <contour>
      <point x="227" y="245" type="line"/>
      <point x="206" y="387" type="line" smooth="yes"/>
      <point x="194" y="465"/>
      <point x="186" y="527"/>
      <point x="180" y="595" type="curve"/>
      <point x="174" y="527"/>
      <point x="166" y="465"/>
      <point x="154" y="387" type="curve" smooth="yes"/>
      <point x="133" y="245" type="line"/>
    </contour>
  </outline>
</glyph>
<glyph name="B" format="1">
  <advance width="357"/>
  <unicode hex="0042"/>
  <outline>
    <contour>
      <point x="318" y="203" type="curve" smooth="yes"/>
      <point x="318" y="59"/>
      <point x="245" y="0"/>
      <point x="158" y="0" type="curve" smooth="yes"/>
      <point x="57" y="0" type="line"/>
      <point x="57" y="700" type="line"/>
      <point x="154" y="700" type="line" smooth="yes"/>
      <point x="257" y="700"/>
      <point x="306" y="629"/>
      <point x="306" y="522" type="curve" smooth="yes"/>
      <point x="306" y="434"/>
      <point x="272" y="392"/>
      <point x="231" y="368" type="curve"/>
      <point x="280" y="343"/>
      <point x="318" y="301"/>
    </contour>
    <contour>
      <point x="241" y="520" type="curve" smooth="yes"/>
      <point x="241" y="600"/>
      <point x="208" y="638"/>
      <point x="152" y="638" type="curve" smooth="yes"/>
      <point x="121" y="638" type="line"/>
      <point x="121" y="399" type="line"/>
      <point x="151" y="399" type="line" smooth="yes"/>
      <point x="214" y="399"/>
      <point x="241" y="451"/>
    </contour>
    <contour>
      <point x="253" y="200" type="curve" smooth="yes"/>
      <point x="253" y="289"/>
      <point x="214" y="337"/>
      <point x="149" y="337" type="curve" smooth="yes"/>
      <point x="121" y="337" type="line"/>
      <point x="121" y="62" type="line"/>
      <point x="161" y="62" type="line" smooth="yes"/>
      <point x="219" y="62"/>
      <point x="253" y="105"/>
    </contour>
  </outline>
</glyph>
<glyph name="C" format="1">
  <advance width="346"/>
  <unicode hex="0043"/>
  <outline>
    <contour>
      <point x="316" y="156" type="line"/>
      <point x="298" y="56"/>
      <point x="264" y="-11"/>
      <point x="179" y="-11" type="curve" smooth="yes"/>
      <point x="76" y="-11"/>
      <point x="42" y="114"/>
      <point x="42" y="350" type="curve" smooth="yes"/>
      <point x="42" y="582"/>
      <point x="79" y="711"/>
      <point x="181" y="711" type="curve" smooth="yes"/>
      <point x="261" y="711"/>
      <point x="295" y="645"/>
      <point x="314" y="538" type="curve"/>
      <point x="251" y="521" type="line"/>
      <point x="231" y="623"/>
      <point x="212" y="649"/>
      <point x="180" y="649" type="curve" smooth="yes"/>
      <point x="130" y="649"/>
      <point x="108" y="553"/>
      <point x="108" y="350" type="curve" smooth="yes"/>
      <point x="108" y="139"/>
      <point x="131" y="51"/>
      <point x="184" y="51" type="curve" smooth="yes"/>
      <point x="221" y="51"/>
      <point x="238" y="86"/>
      <point x="255" y="174" type="curve"/>
    </contour>
  </outline>
</glyph>
<glyph name="D" format="1">
  <advance width="366"/>
  <unicode hex="0044"/>
  <outline>
    <contour>
      <point x="325" y="355" type="curve" smooth="yes"/>
      <point x="325" y="115"/>
      <point x="272" y="0"/>
      <point x="153" y="0" type="curve" smooth="yes"/>
      <point x="57" y="0" type="line"/>
      <point x="57" y="700" type="line"/>
      <point x="162" y="700" type="line" smooth="yes"/>
      <point x="289" y="700"/>
      <point x="325" y="572"/>
    </contour>
    <contour>
      <point x="260" y="352" type="curve" smooth="yes"/>
      <point x="260" y="551"/>
      <point x="227" y="639"/>
      <point x="161" y="639" type="curve" smooth="yes"/>
      <point x="121" y="639" type="line"/>
      <point x="121" y="61" type="line"/>
      <point x="158" y="61" type="line" smooth="yes"/>
      <point x="221" y="61"/>
      <point x="260" y="140"/>
    </contour>
  </outline>
</glyph>
<glyph name="E" format="1">
  <advance width="319"/>
  <unicode hex="0045"/>
  <outline>
    <contour>
      <point x="290" y="0" type="line"/>
      <point x="57" y="0" type="line"/>
      <point x="57" y="700" type="line"/>
      <point x="280" y="700" type="line"/>
      <point x="280" y="638" type="line"/>
      <point x="121" y="638" type="line"/>
      <point x="121" y="405" type="line"/>
      <point x="232" y="405" type="line"/>
      <point x="232" y="343" type="line"/>
      <point x="121" y="343" type="line"/>
      <point x="121" y="62" type="line"/>
      <point x="290" y="62" type="line"/>
    </contour>
  </outline>
</glyph>
<glyph name="F" format="1">
  <advance width="314"/>
  <unicode hex="0046"/>
  <outline>
    <contour>
      <point x="286" y="638" type="line"/>
      <point x="121" y="638" type="line"/>
      <point x="121" y="400" type="line"/>
      <point x="239" y="400" type="line"/>
      <point x="239" y="338" type="line"/>
      <point x="121" y="338" type="line"/>
      <point x="121" y="0" type="line"/>
      <point x="57" y="0" type="line"/>
      <point x="57" y="700" type="line"/>
      <point x="286" y="700" type="line"/>
    </contour>
  </outline>
</glyph>
<glyph name="G" format="1">
  <advance width="363"/>
  <unicode hex="0047"/>
  <outline>
    <contour>
      <point x="320" y="223" type="line" smooth="yes"/>
      <point x="320" y="102"/>
      <point x="292" y="-11"/>
      <point x="181" y="-11" type="curve" smooth="yes"/>
      <point x="75" y="-11"/>
      <point x="42" y="114"/>
      <point x="42" y="350" type="curve" smooth="yes"/>
      <point x="42" y="581"/>
      <point x="76" y="711"/>
      <point x="184" y="711" type="curve" smooth="yes"/>
      <point x="260" y="711"/>
      <point x="295" y="645"/>
      <point x="314" y="538" type="curve"/>
      <point x="251" y="521" type="line"/>
      <point x="232" y="622"/>
      <point x="212" y="649"/>
      <point x="181" y="649" type="curve" smooth="yes"/>
      <point x="130" y="649"/>
      <point x="108" y="556"/>
      <point x="108" y="350" type="curve" smooth="yes"/>
      <point x="108" y="140"/>
      <point x="130" y="51"/>
      <point x="185" y="51" type="curve" smooth="yes"/>
      <point x="235" y="51"/>
      <point x="257" y="106"/>
      <point x="257" y="217" type="curve" smooth="yes"/>
      <point x="257" y="300" type="line"/>
      <point x="182" y="300" type="line"/>
      <point x="182" y="361" type="line"/>
      <point x="320" y="361" type="line"/>
    </contour>
  </outline>
</glyph>
<glyph name="H" format="1">
  <advance width="392"/>
  <unicode hex="0048"/>
  <outline>
    <contour>
      <point x="335" y="0" type="line"/>
      <point x="271" y="0" type="line"/>
      <point x="271" y="343" type="line"/>
      <point x="121" y="343" type="line"/>
      <point x="121" y="0" type="line"/>
      <point x="57" y="0" type="line"/>
      <point x="57" y="700" type="line"/>
      <point x="121" y="700" type="line"/>
      <point x="121" y="404" type="line"/>
      <point x="271" y="404" type="line"/>
      <point x="271" y="700" type="line"/>
      <point x="335" y="700" type="line"/>
    </contour>
  </outline>
</glyph>
<glyph name="I" format="1">
  <advance width="188"/>
  <unicode hex="0049"/>
  <outline>
    <contour>
      <point x="126" y="0" type="line"/>
      <point x="62" y="0" type="line"/>
      <point x="62" y="700" type="line"/>
      <point x="126" y="700" type="line"/>
    </contour>
  </outline>
</glyph>
<glyph name="J" format="1">
  <advance width="327"/>
  <unicode hex="004A"/>
  <outline>
    <contour>
      <point x="271" y="163" type="line" smooth="yes"/>
      <point x="271" y="48"/>
      <point x="224" y="-11"/>
      <point x="151" y="-11" type="curve" smooth="yes"/>
      <point x="71" y="-11"/>
      <point x="37" y="51"/>
      <point x="22" y="164" type="curve"/>
      <point x="84" y="177" type="line"/>
      <point x="97" y="83"/>
      <point x="117" y="51"/>
      <point x="153" y="51" type="curve" smooth="yes"/>
      <point x="186" y="51"/>
      <point x="207" y="83"/>
      <point x="207" y="164" type="curve" smooth="yes"/>
      <point x="207" y="700" type="line"/>
      <point x="271" y="700" type="line"/>
    </contour>
  </outline>
</glyph>
<glyph name="K" format="1">
  <advance width="345"/>
  <unicode hex="004B"/>
  <outline>
    <contour>
      <point x="322" y="0" type="line"/>
      <point x="254" y="0" type="line"/>
      <point x="151" y="360" type="line"/>
      <point x="121" y="293" type="line"/>
      <point x="121" y="0" type="line"/>
      <point x="57" y="0" type="line"/>
      <point x="57" y="700" type="line"/>
      <point x="121" y="700" type="line"/>
      <point x="121" y="514" type="line" smooth="yes"/>
      <point x="121" y="468"/>
      <point x="120" y="435"/>
      <point x="120" y="396" type="curve"/>
      <point x="134" y="435"/>
      <point x="154" y="483"/>
      <point x="174" y="528" type="curve" smooth="yes"/>
      <point x="250" y="700" type="line"/>
      <point x="320" y="700" type="line"/>
      <point x="195" y="438" type="line"/>
    </contour>
  </outline>
</glyph>
<glyph name="L" format="1">
  <advance width="292"/>
  <unicode hex="004C"/>
  <outline>
    <contour>
      <point x="269" y="0" type="line"/>
      <point x="57" y="0" type="line"/>
      <point x="57" y="700" type="line"/>
      <point x="121" y="700" type="line"/>
      <point x="121" y="62" type="line"/>
      <point x="269" y="62" type="line"/>
    </contour>
  </outline>
</glyph>
<glyph name="M" format="1">
  <advance width="454"/>
  <unicode hex="004D"/>
  <outline>
    <contour>
      <point x="397" y="0" type="line"/>
      <point x="339" y="0" type="line"/>
      <point x="339" y="378" type="line" smooth="yes"/>
      <point x="339" y="435"/>
      <point x="340" y="481"/>
      <point x="340" y="529" type="curve"/>
      <point x="333" y="479"/>
      <point x="327" y="440"/>
      <point x="313" y="377" type="curve" smooth="yes"/>
      <point x="227" y="-21" type="line"/>
      <point x="141" y="377" type="line" smooth="yes"/>
      <point x="127" y="440"/>
      <point x="122" y="477"/>
      <point x="114" y="529" type="curve"/>
      <point x="114" y="481"/>
      <point x="115" y="441"/>
      <point x="115" y="378" type="curve" smooth="yes"/>
      <point x="115" y="0" type="line"/>
      <point x="57" y="0" type="line"/>
      <point x="57" y="700" type="line"/>
      <point x="128" y="700" type="line"/>
      <point x="200" y="364" type="line" smooth="yes"/>
      <point x="216" y="289"/>
      <point x="224" y="237"/>
      <point x="227" y="179" type="curve"/>
      <point x="230" y="237"/>
      <point x="239" y="290"/>
      <point x="255" y="364" type="curve" smooth="yes"/>
      <point x="327" y="700" type="line"/>
      <point x="397" y="700" type="line"/>
    </contour>
  </outline>
</glyph>
<glyph name="N" format="1">
  <advance width="392"/>
  <unicode hex="004E"/>
  <outline>
    <contour>
      <point x="335" y="0" type="line"/>
      <point x="284" y="0" type="line"/>
      <point x="177" y="326" type="line" smooth="yes"/>
      <point x="152" y="402"/>
      <point x="127" y="482"/>
      <point x="115" y="541" type="curve"/>
      <point x="116" y="498"/>
      <point x="117" y="427"/>
      <point x="117" y="359" type="curve" smooth="yes"/>
      <point x="117" y="0" type="line"/>
      <point x="57" y="0" type="line"/>
      <point x="57" y="700" type="line"/>
      <point x="120" y="700" type="line"/>
      <point x="215" y="408" type="line" smooth="yes"/>
      <point x="240" y="332"/>
      <point x="265" y="252"/>
      <point x="277" y="193" type="curve"/>
      <point x="276" y="236"/>
      <point x="275" y="307"/>
      <point x="275" y="375" type="curve" smooth="yes"/>
      <point x="275" y="700" type="line"/>
      <point x="335" y="700" type="line"/>
    </contour>
  </outline>
</glyph>
<glyph name="O" format="1">
  <advance width="374"/>
  <unicode hex="004F"/>
  <outline>
    <contour>
      <point x="332" y="350" type="curve" smooth="yes"/>
      <point x="332" y="114"/>
      <point x="293" y="-11"/>
      <point x="187" y="-11" type="curve" smooth="yes"/>
      <point x="81" y="-11"/>
      <point x="42" y="114"/>
      <point x="42" y="350" type="curve" smooth="yes"/>
      <point x="42" y="586"/>
      <point x="81" y="711"/>
      <point x="187" y="711" type="curve" smooth="yes"/>
      <point x="293" y="711"/>
      <point x="332" y="586"/>
    </contour>
    <contour>
      <point x="266" y="350" type="curve" smooth="yes"/>
      <point x="266" y="558"/>
      <point x="238" y="649"/>
      <point x="186" y="649" type="curve" smooth="yes"/>
      <point x="134" y="649"/>
      <point x="108" y="558"/>
      <point x="108" y="350" type="curve" smooth="yes"/>
      <point x="108" y="142"/>
      <point x="136" y="51"/>
      <point x="188" y="51" type="curve" smooth="yes"/>
      <point x="240" y="51"/>
      <point x="266" y="142"/>
    </contour>
  </outline>
</glyph>
<glyph name="P" format="1">
  <advance width="342"/>
  <unicode hex="0050"/>
  <outline>
    <contour>
      <point x="313" y="515" type="curve" smooth="yes"/>
      <point x="313" y="376"/>
      <point x="235" y="318"/>
      <point x="152" y="318" type="curve" smooth="yes"/>
      <point x="121" y="318" type="line"/>
      <point x="121" y="0" type="line"/>
      <point x="57" y="0" type="line"/>
      <point x="57" y="700" type="line"/>
      <point x="157" y="700" type="line" smooth="yes"/>
      <point x="245" y="700"/>
      <point x="313" y="644"/>
    </contour>
    <contour>
      <point x="248" y="511" type="curve" smooth="yes"/>
      <point x="248" y="595"/>
      <point x="213" y="638"/>
      <point x="155" y="638" type="curve" smooth="yes"/>
      <point x="121" y="638" type="line"/>
      <point x="121" y="380" type="line"/>
      <point x="155" y="380" type="line" smooth="yes"/>
      <point x="213" y="380"/>
      <point x="248" y="426"/>
    </contour>
  </outline>
</glyph>
<glyph name="Q" format="1">
  <advance width="374"/>
  <unicode hex="0051"/>
  <outline>
    <contour>
      <point x="333" y="28" type="line"/>
      <point x="290" y="-11" type="line"/>
      <point x="262" y="22" type="line"/>
      <point x="242" y="0"/>
      <point x="217" y="-11"/>
      <point x="187" y="-11" type="curve" smooth="yes"/>
      <point x="81" y="-11"/>
      <point x="42" y="114"/>
      <point x="42" y="350" type="curve" smooth="yes"/>
      <point x="42" y="586"/>
      <point x="81" y="711"/>
      <point x="187" y="711" type="curve" smooth="yes"/>
      <point x="293" y="711"/>
      <point x="332" y="586"/>
      <point x="332" y="350" type="curve" smooth="yes"/>
      <point x="332" y="228"/>
      <point x="320" y="135"/>
      <point x="294" y="74" type="curve"/>
    </contour>
    <contour>
      <point x="266" y="350" type="curve" smooth="yes"/>
      <point x="266" y="558"/>
      <point x="238" y="649"/>
      <point x="186" y="649" type="curve" smooth="yes"/>
      <point x="134" y="649"/>
      <point x="108" y="558"/>
      <point x="108" y="350" type="curve" smooth="yes"/>
      <point x="108" y="142"/>
      <point x="136" y="51"/>
      <point x="188" y="51" type="curve" smooth="yes"/>
      <point x="202" y="51"/>
      <point x="215" y="55"/>
      <point x="225" y="66" type="curve"/>
      <point x="176" y="124" type="line"/>
      <point x="218" y="164" type="line"/>
      <point x="251" y="125" type="line"/>
      <point x="262" y="170"/>
      <point x="266" y="241"/>
    </contour>
  </outline>
</glyph>
<glyph name="R" format="1">
  <advance width="352"/>
  <unicode hex="0052"/>
  <outline>
    <contour>
      <point x="322" y="0" type="line"/>
      <point x="254" y="0" type="line"/>
      <point x="177" y="330" type="line"/>
      <point x="162" y="328"/>
      <point x="143" y="328"/>
      <point x="121" y="328" type="curve"/>
      <point x="121" y="0" type="line"/>
      <point x="57" y="0" type="line"/>
      <point x="57" y="700" type="line"/>
      <point x="157" y="700" type="line" smooth="yes"/>
      <point x="245" y="700"/>
      <point x="313" y="642"/>
      <point x="313" y="520" type="curve" smooth="yes"/>
      <point x="313" y="438"/>
      <point x="283" y="384"/>
      <point x="240" y="354" type="curve"/>
    </contour>
    <contour>
      <point x="248" y="515" type="curve" smooth="yes"/>
      <point x="248" y="595"/>
      <point x="213" y="638"/>
      <point x="155" y="638" type="curve" smooth="yes"/>
      <point x="121" y="638" type="line"/>
      <point x="121" y="388" type="line"/>
      <point x="155" y="388" type="line" smooth="yes"/>
      <point x="213" y="388"/>
      <point x="248" y="434"/>
    </contour>
  </outline>
</glyph>
<glyph name="S" format="1">
  <advance width="334"/>
  <unicode hex="0053"/>
  <outline>
    <contour>
      <point x="294" y="143" type="curve" smooth="yes"/>
      <point x="294" y="51"/>
      <point x="244" y="-11"/>
      <point x="164" y="-11" type="curve" smooth="yes"/>
      <point x="84" y="-11"/>
      <point x="45" y="49"/>
      <point x="31" y="154" type="curve"/>
      <point x="96" y="169" type="line"/>
      <point x="111" y="77"/>
      <point x="134" y="51"/>
      <point x="165" y="51" type="curve" smooth="yes"/>
      <point x="206" y="51"/>
      <point x="229" y="85"/>
      <point x="229" y="134" type="curve" smooth="yes"/>
      <point x="229" y="199"/>
      <point x="200" y="270"/>
      <point x="134" y="343" type="curve" smooth="yes"/>
      <point x="59" y="427"/>
      <point x="38" y="480"/>
      <point x="38" y="567" type="curve" smooth="yes"/>
      <point x="38" y="646"/>
      <point x="82" y="711"/>
      <point x="159" y="711" type="curve" smooth="yes"/>
      <point x="240" y="711"/>
      <point x="271" y="656"/>
      <point x="291" y="573" type="curve"/>
      <point x="226" y="554" type="line"/>
      <point x="207" y="626"/>
      <point x="191" y="649"/>
      <point x="157" y="649" type="curve" smooth="yes"/>
      <point x="121" y="649"/>
      <point x="103" y="609"/>
      <point x="103" y="573" type="curve" smooth="yes"/>
      <point x="103" y="517"/>
      <point x="117" y="473"/>
      <point x="183" y="399" type="curve" smooth="yes"/>
      <point x="259" y="315"/>
      <point x="294" y="236"/>
    </contour>
  </outline>
</glyph>
<glyph name="T" format="1">
  <advance width="310"/>
  <unicode hex="0054"/>
  <outline>
    <contour>
      <point x="289" y="640" type="line"/>
      <point x="187" y="640" type="line"/>
      <point x="187" y="0" type="line"/>
      <point x="123" y="0" type="line"/>
      <point x="123" y="640" type="line"/>
      <point x="21" y="640" type="line"/>
      <point x="21" y="700" type="line"/>
      <point x="289" y="700" type="line"/>
    </contour>
  </outline>
</glyph>
<glyph name="U" format="1">
  <advance width="390"/>
  <unicode hex="0055"/>
  <outline>
    <contour>
      <point x="334" y="163" type="line" smooth="yes"/>
      <point x="334" y="56"/>
      <point x="278" y="-11"/>
      <point x="194" y="-11" type="curve" smooth="yes"/>
      <point x="110" y="-11"/>
      <point x="56" y="56"/>
      <point x="56" y="163" type="curve" smooth="yes"/>
      <point x="56" y="700" type="line"/>
      <point x="120" y="700" type="line"/>
      <point x="120" y="165" type="line" smooth="yes"/>
      <point x="120" y="94"/>
      <point x="149" y="51"/>
      <point x="195" y="51" type="curve" smooth="yes"/>
      <point x="241" y="51"/>
      <point x="270" y="94"/>
      <point x="270" y="165" type="curve" smooth="yes"/>
      <point x="270" y="700" type="line"/>
      <point x="334" y="700" type="line"/>
    </contour>
  </outline>
</glyph>
<glyph name="V" format="1">
  <advance width="352"/>
  <unicode hex="0056"/>
  <outline>
    <contour>
      <point x="323" y="700" type="line"/>
      <point x="208" y="0" type="line"/>
      <point x="144" y="0" type="line"/>
      <point x="29" y="700" type="line"/>
      <point x="93" y="700" type="line"/>
      <point x="150" y="306" type="line" smooth="yes"/>
      <point x="162" y="226"/>
      <point x="170" y="163"/>
      <point x="176" y="94" type="curve"/>
      <point x="182" y="163"/>
      <point x="190" y="226"/>
      <point x="202" y="306" type="curve" smooth="yes"/>
      <point x="259" y="700" type="line"/>
    </contour>
  </outline>
</glyph>
<glyph name="W" format="1">
  <advance width="450"/>
  <unicode hex="0057"/>
  <outline>
    <contour>
      <point x="429" y="700" type="line"/>
      <point x="345" y="0" type="line"/>
      <point x="287" y="0" type="line"/>
      <point x="248" y="282" type="line" smooth="yes"/>
      <point x="239" y="347"/>
      <point x="226" y="458"/>
      <point x="224" y="535" type="curve"/>
      <point x="222" y="458"/>
      <point x="209" y="348"/>
      <point x="200" y="282" type="curve" smooth="yes"/>
      <point x="161" y="0" type="line"/>
      <point x="105" y="0" type="line"/>
      <point x="21" y="700" type="line"/>
      <point x="82" y="700" type="line"/>
      <point x="123" y="316" type="line" smooth="yes"/>
      <point x="128" y="267"/>
      <point x="133" y="210"/>
      <point x="136" y="166" type="curve"/>
      <point x="140" y="210"/>
      <point x="145" y="268"/>
      <point x="151" y="318" type="curve" smooth="yes"/>
      <point x="200" y="700" type="line"/>
      <point x="250" y="700" type="line"/>
      <point x="299" y="318" type="line" smooth="yes"/>
      <point x="305" y="268"/>
      <point x="310" y="210"/>
      <point x="314" y="166" type="curve"/>
      <point x="317" y="210"/>
      <point x="322" y="267"/>
      <point x="327" y="316" type="curve" smooth="yes"/>
      <point x="368" y="700" type="line"/>
    </contour>
  </outline>
</glyph>
<glyph name="X" format="1">
  <advance width="326"/>
  <unicode hex="0058"/>
  <outline>
    <contour>
      <point x="304" y="0" type="line"/>
      <point x="236" y="0" type="line"/>
      <point x="192" y="159" type="line" smooth="yes"/>
      <point x="178" y="208"/>
      <point x="169" y="248"/>
      <point x="162" y="285" type="curve"/>
      <point x="155" y="248"/>
      <point x="146" y="208"/>
      <point x="132" y="159" type="curve" smooth="yes"/>
      <point x="88" y="0" type="line"/>
      <point x="22" y="0" type="line"/>
      <point x="129" y="363" type="line"/>
      <point x="30" y="700" type="line"/>
      <point x="98" y="700" type="line"/>
      <point x="134" y="568" type="line" smooth="yes"/>
      <point x="147" y="519"/>
      <point x="157" y="479"/>
      <point x="164" y="442" type="curve"/>
      <point x="171" y="479"/>
      <point x="181" y="519"/>
      <point x="194" y="568" type="curve" smooth="yes"/>
      <point x="230" y="700" type="line"/>
      <point x="296" y="700" type="line"/>
      <point x="197" y="364" type="line"/>
    </contour>
  </outline>
</glyph>
<glyph name="Y" format="1">
  <advance width="334"/>
  <unicode hex="0059"/>
  <outline>
    <contour>
      <point x="317" y="700" type="line"/>
      <point x="199" y="303" type="line"/>
      <point x="199" y="0" type="line"/>
      <point x="135" y="0" type="line"/>
      <point x="135" y="301" type="line"/>
      <point x="17" y="700" type="line"/>
      <point x="84" y="700" type="line"/>
      <point x="131" y="525" type="line" smooth="yes"/>
      <point x="147" y="465"/>
      <point x="161" y="410"/>
      <point x="168" y="369" type="curve"/>
      <point x="175" y="410"/>
      <point x="189" y="467"/>
      <point x="205" y="525" type="curve" smooth="yes"/>
      <point x="252" y="700" type="line"/>
    </contour>
  </outline>
</glyph>
<glyph name="Z" format="1">
  <advance width="305"/>
  <unicode hex="005A"/>
  <outline>
    <contour>
      <point x="268" y="0" type="line"/>
      <point x="32" y="0" type="line"/>
      <point x="32" y="57" type="line"/>
      <point x="203" y="639" type="line"/>
      <point x="47" y="639" type="line"/>
      <point x="47" y="700" type="line"/>
      <point x="268" y="700" type="line"/>
      <point x="268" y="643" type="line"/>
      <point x="98" y="61" type="line"/>
      <point x="268" y="61" type="line"/>
    </contour>
  </outline>
</glyph>
<glyph name="bracketleft" format="1">
  <advance width="245"/>
  <unicode hex="005B"/>
  <outline>
    <contour>
      <point x="208" y="-93" type="line"/>
      <point x="60" y="-93" type="line"/>
      <point x="60" y="700" type="line"/>
      <point x="208" y="700" type="line"/>
      <point x="208" y="643" type="line"/>
      <point x="120" y="643" type="line"/>
      <point x="120" y="-36" type="line"/>
      <point x="208" y="-36" type="line"/>
    </contour>
  </outline>
</glyph>
<glyph name="backslash" format="1">
  <advance width="230"/>
  <unicode hex="005C"/>
  <outline>
    <contour>
      <point x="235" y="-90" type="line"/>
      <point x="176" y="-90" type="line"/>
      <point x="-5" y="790" type="line"/>
      <point x="54" y="790" type="line"/>
    </contour>
  </outline>
</glyph>
<glyph name="bracketright" format="1">
  <advance width="245"/>
  <unicode hex="005D"/>
  <outline>
    <contour>
      <point x="185" y="-93" type="line"/>
      <point x="37" y="-93" type="line"/>
      <point x="37" y="-36" type="line"/>
      <point x="125" y="-36" type="line"/>
      <point x="125" y="643" type="line"/>
      <point x="37" y="643" type="line"/>
      <point x="37" y="700" type="line"/>
      <point x="185" y="700" type="line"/>
    </contour>
  </outline>
</glyph>
<glyph name="asciicircum" format="1">
  <advance width="320"/>
  <unicode hex="005E"/>
  <outline>
    <contour>
      <point x="292" y="382" type="line"/>
      <point x="226" y="382" type="line"/>
      <point x="159" y="613" type="line"/>
      <point x="93" y="382" type="line"/>
      <point x="28" y="382" type="line"/>
      <point x="132" y="700" type="line"/>
      <point x="188" y="700" type="line"/>
    </contour>
  </outline>
</glyph>
<glyph name="underscore" format="1">
  <advance width="245"/>
  <unicode hex="005F"/>
  <outline>
    <contour>
      <point x="245" y="-151" type="line"/>
      <point x="0" y="-151" type="line"/>
      <point x="0" y="-94" type="line"/>
      <point x="245" y="-94" type="line"/>
    </contour>
  </outline>
</glyph>
<glyph name="grave" format="1">
  <advance width="330"/>
  <unicode hex="0060"/>
  <outline>
    <contour>
      <point x="231" y="595" type="line"/>
      <point x="184" y="595" type="line"/>
      <point x="68" y="755" type="line"/>
      <point x="155" y="755" type="line"/>
    </contour>
  </outline>
</glyph>
<glyph name="a" format="1">
  <advance width="322"/>
  <unicode hex="0061"/>
  <outline>
    <contour>
      <point x="273" y="0" type="line"/>
      <point x="211" y="0" type="line"/>
      <point x="211" y="25" type="line"/>
      <point x="189" y="4"/>
      <point x="164" y="-11"/>
      <point x="134" y="-11" type="curve" smooth="yes"/>
      <point x="66" y="-11"/>
      <point x="34" y="51"/>
      <point x="34" y="164" type="curve" smooth="yes"/>
      <point x="34" y="283"/>
      <point x="74" y="338"/>
      <point x="150" y="338" type="curve" smooth="yes"/>
      <point x="175" y="338"/>
      <point x="194" y="331"/>
      <point x="211" y="319" type="curve"/>
      <point x="211" y="405" type="line" smooth="yes"/>
      <point x="211" y="454"/>
      <point x="194" y="475"/>
      <point x="160" y="475" type="curve" smooth="yes"/>
      <point x="137" y="475"/>
      <point x="116" y="460"/>
      <point x="86" y="429" type="curve"/>
      <point x="49" y="476" type="line"/>
      <point x="86" y="513"/>
      <point x="124" y="536"/>
      <point x="164" y="536" type="curve" smooth="yes"/>
      <point x="232" y="536"/>
      <point x="273" y="510"/>
      <point x="273" y="410" type="curve" smooth="yes"/>
    </contour>
    <contour>
      <point x="211" y="80" type="curve"/>
      <point x="211" y="261" type="line"/>
      <point x="193" y="272"/>
      <point x="182" y="279"/>
      <point x="152" y="279" type="curve" smooth="yes"/>
      <point x="108" y="279"/>
      <point x="97" y="236"/>
      <point x="97" y="166" type="curve" smooth="yes"/>
      <point x="97" y="103"/>
      <point x="108" y="48"/>
      <point x="146" y="48" type="curve" smooth="yes"/>
      <point x="166" y="48"/>
      <point x="192" y="60"/>
    </contour>
  </outline>
</glyph>
<glyph name="c" format="1">
  <advance width="305"/>
  <unicode hex="0063"/>
  <outline>
    <contour>
      <point x="277" y="100" type="line"/>
      <point x="253" y="31"/>
      <point x="219" y="-11"/>
      <point x="165" y="-11" type="curve" smooth="yes"/>
      <point x="81" y="-11"/>
      <point x="37" y="89"/>
      <point x="37" y="259" type="curve" smooth="yes"/>
      <point x="37" y="439"/>
      <point x="83" y="536"/>
      <point x="166" y="536" type="curve" smooth="yes"/>
      <point x="230" y="536"/>
      <point x="258" y="484"/>
      <point x="275" y="419" type="curve"/>
      <point x="220" y="391" type="line"/>
      <point x="206" y="440"/>
      <point x="196" y="475"/>
      <point x="164" y="475" type="curve" smooth="yes"/>
      <point x="124" y="475"/>
      <point x="100" y="410"/>
      <point x="100" y="260" type="curve" smooth="yes"/>
      <point x="100" y="135"/>
      <point x="117" y="50"/>
      <point x="167" y="50" type="curve" smooth="yes"/>
      <point x="193" y="50"/>
      <point x="205" y="73"/>
      <point x="227" y="130" type="curve"/>
    </contour>
  </outline>
</glyph>
<glyph name="e" format="1">
  <advance width="325"/>
  <unicode hex="0065"/>
  <outline>
    <contour>
      <point x="287" y="241" type="curve"/>
      <point x="98" y="241" type="line"/>
      <point x="100" y="126"/>
      <point x="118" y="50"/>
      <point x="164" y="50" type="curve" smooth="yes"/>
      <point x="197" y="50"/>
      <point x="211" y="71"/>
      <point x="239" y="118" type="curve"/>
      <point x="282" y="84" type="line"/>
      <point x="254" y="31"/>
      <point x="222" y="-11"/>
      <point x="163" y="-11" type="curve" smooth="yes"/>
      <point x="77" y="-11"/>
      <point x="37" y="89"/>
      <point x="37" y="259" type="curve" smooth="yes"/>
      <point x="37" y="439"/>
      <point x="83" y="536"/>
      <point x="165" y="536" type="curve" smooth="yes"/>
      <point x="245" y="536"/>
      <point x="287" y="439"/>
      <point x="287" y="255" type="curve" smooth="yes"/>
      <point x="287" y="249"/>
      <point x="287" y="245"/>
    </contour>
    <contour>
      <point x="225" y="300" type="line"/>
      <point x="222" y="401"/>
      <point x="203" y="475"/>
      <point x="163" y="475" type="curve" smooth="yes"/>
      <point x="129" y="475"/>
      <point x="103" y="422"/>
      <point x="99" y="300" type="curve"/>
    </contour>
  </outline>
</glyph>
<glyph name="f" format="1">
  <advance width="208"/>
  <unicode hex="0066"/>
  <outline>
    <contour>
      <point x="203" y="660" type="line"/>
      <point x="191" y="664"/>
      <point x="177" y="667"/>
      <point x="162" y="667" type="curve" smooth="yes"/>
      <point x="139" y="667"/>
      <point x="123" y="652"/>
      <point x="123" y="618" type="curve" smooth="yes"/>
      <point x="123" y="525" type="line"/>
      <point x="189" y="525" type="line"/>
      <point x="189" y="468" type="line"/>
      <point x="123" y="468" type="line"/>
      <point x="123" y="0" type="line"/>
      <point x="63" y="0" type="line"/>
      <point x="63" y="468" type="line"/>
      <point x="19" y="468" type="line"/>
      <point x="19" y="525" type="line"/>
      <point x="63" y="525" type="line"/>
      <point x="63" y="613" type="line" smooth="yes"/>
      <point x="63" y="691"/>
      <point x="99" y="726"/>
      <point x="154" y="726" type="curve" smooth="yes"/>
      <point x="176" y="726"/>
      <point x="190" y="723"/>
      <point x="203" y="718" type="curve"/>
    </contour>
  </outline>
</glyph>
<glyph name="h" format="1">
  <advance width="341"/>
  <unicode hex="0068"/>
  <outline>
    <contour>
      <point x="292" y="0" type="line"/>
      <point x="230" y="0" type="line"/>
      <point x="230" y="392" type="line" smooth="yes"/>
      <point x="230" y="455"/>
      <point x="215" y="477"/>
      <point x="179" y="477" type="curve" smooth="yes"/>
      <point x="157" y="477"/>
      <point x="133" y="464"/>
      <point x="114" y="446" type="curve"/>
      <point x="114" y="0" type="line"/>
      <point x="52" y="0" type="line"/>
      <point x="52" y="691" type="line"/>
      <point x="114" y="729" type="line"/>
      <point x="114" y="499" type="line"/>
      <point x="135" y="519"/>
      <point x="161" y="536"/>
      <point x="199" y="536" type="curve" smooth="yes"/>
      <point x="267" y="536"/>
      <point x="292" y="483"/>
      <point x="292" y="396" type="curve" smooth="yes"/>
    </contour>
  </outline>
</glyph>
<glyph name="i" format="1">
  <advance width="176"/>
  <unicode hex="0069"/>
  <outline>
    <contour>
      <point x="131" y="675" type="curve" smooth="yes"/>
      <point x="131" y="651"/>
      <point x="113" y="628"/>
      <point x="90" y="628" type="curve" smooth="yes"/>
      <point x="67" y="628"/>
      <point x="47" y="651"/>
      <point x="47" y="675" type="curve" smooth="yes"/>
      <point x="47" y="701"/>
      <point x="67" y="723"/>
      <point x="90" y="723" type="curve" smooth="yes"/>
      <point x="113" y="723"/>
      <point x="131" y="701"/>
    </contour>
    <contour>
      <point x="119" y="0" type="line"/>
      <point x="57" y="0" type="line"/>
      <point x="57" y="525" type="line"/>
      <point x="119" y="525" type="line"/>
    </contour>
  </outline>
</glyph>
<glyph name="j" format="1">
  <advance width="176"/>
  <unicode hex="006A"/>
  <outline>
    <contour>
      <point x="131" y="675" type="curve" smooth="yes"/>
      <point x="131" y="651"/>
      <point x="113" y="628"/>
      <point x="90" y="628" type="curve" smooth="yes"/>
      <point x="67" y="628"/>
      <point x="47" y="651"/>
      <point x="47" y="675" type="curve" smooth="yes"/>
      <point x="47" y="701"/>
      <point x="67" y="723"/>
      <point x="90" y="723" type="curve" smooth="yes"/>
      <point x="113" y="723"/>
      <point x="131" y="701"/>
    </contour>
    <contour>
      <point x="119" y="9" type="line" smooth="yes"/>
      <point x="119" y="-122"/>
      <point x="84" y="-161"/>
      <point x="-4" y="-193" type="curve"/>
      <point x="-21" y="-139" type="line"/>
      <point x="41" y="-116"/>
      <point x="57" y="-90"/>
      <point x="57" y="3" type="curve" smooth="yes"/>
      <point x="57" y="525" type="line"/>
      <point x="119" y="525" type="line"/>
    </contour>
  </outline>
</glyph>
<glyph name="k" format="1">
  <advance width="316"/>
  <unicode hex="006B"/>
  <outline>
    <contour>
      <point x="302" y="0" type="line"/>
      <point x="235" y="0" type="line"/>
      <point x="153" y="263" type="line"/>
      <point x="114" y="182" type="line"/>
      <point x="114" y="0" type="line"/>
      <point x="52" y="0" type="line"/>
      <point x="52" y="691" type="line"/>
      <point x="114" y="729" type="line"/>
      <point x="114" y="358" type="line" smooth="yes"/>
      <point x="114" y="328"/>
      <point x="114" y="307"/>
      <point x="114" y="279" type="curve"/>
      <point x="124" y="304"/>
      <point x="141" y="343"/>
      <point x="152" y="368" type="curve" smooth="yes"/>
      <point x="224" y="525" type="line"/>
      <point x="295" y="525" type="line"/>
      <point x="192" y="330" type="line"/>
    </contour>
  </outline>
</glyph>
<glyph name="l" format="1">
  <advance width="176"/>
  <unicode hex="006C"/>
  <outline>
    <contour>
      <point x="119" y="0" type="line"/>
      <point x="57" y="0" type="line"/>
      <point x="57" y="691" type="line"/>
      <point x="119" y="729" type="line"/>
    </contour>
  </outline>
</glyph>
<glyph name="m" format="1">
  <advance width="499"/>
  <unicode hex="006D"/>
  <outline>
    <contour>
      <point x="450" y="0" type="line"/>
      <point x="388" y="0" type="line"/>
      <point x="388" y="392" type="line" smooth="yes"/>
      <point x="388" y="455"/>
      <point x="374" y="477"/>
      <point x="342" y="477" type="curve" smooth="yes"/>
      <point x="323" y="477"/>
      <point x="301" y="464"/>
      <point x="282" y="446" type="curve"/>
      <point x="282" y="0" type="line"/>
      <point x="220" y="0" type="line"/>
      <point x="220" y="392" type="line" smooth="yes"/>
      <point x="220" y="455"/>
      <point x="206" y="477"/>
      <point x="174" y="477" type="curve" smooth="yes"/>
      <point x="155" y="477"/>
      <point x="133" y="464"/>
      <point x="114" y="446" type="curve"/>
      <point x="114" y="0" type="line"/>
      <point x="52" y="0" type="line"/>
      <point x="52" y="525" type="line"/>
      <point x="114" y="525" type="line"/>
      <point x="114" y="499" type="line"/>
      <point x="135" y="519"/>
      <point x="161" y="536"/>
      <point x="194" y="536" type="curve" smooth="yes"/>
      <point x="230" y="536"/>
      <point x="249" y="521"/>
      <point x="265" y="493" type="curve"/>
      <point x="296" y="520"/>
      <point x="324" y="536"/>
      <point x="362" y="536" type="curve" smooth="yes"/>
      <point x="425" y="536"/>
      <point x="450" y="483"/>
      <point x="450" y="396" type="curve" smooth="yes"/>
    </contour>
  </outline>
</glyph>
<glyph name="n" format="1">
  <advance width="341"/>
  <unicode hex="006E"/>
  <outline>
    <contour>
      <point x="292" y="0" type="line"/>
      <point x="230" y="0" type="line"/>
      <point x="230" y="392" type="line" smooth="yes"/>
      <point x="230" y="455"/>
      <point x="215" y="477"/>
      <point x="179" y="477" type="curve" smooth="yes"/>
      <point x="157" y="477"/>
      <point x="133" y="464"/>
      <point x="114" y="446" type="curve"/>
      <point x="114" y="0" type="line"/>
      <point x="52" y="0" type="line"/>
      <point x="52" y="525" type="line"/>
      <point x="114" y="525" type="line"/>
      <point x="114" y="499" type="line"/>
      <point x="135" y="519"/>
      <point x="161" y="536"/>
      <point x="199" y="536" type="curve" smooth="yes"/>
      <point x="267" y="536"/>
      <point x="292" y="483"/>
      <point x="292" y="396" type="curve" smooth="yes"/>
    </contour>
  </outline>
</glyph>
<glyph name="o" format="1">
  <advance width="344"/>
  <unicode hex="006F"/>
  <outline>
    <contour>
      <point x="307" y="262" type="curve" smooth="yes"/>
      <point x="307" y="83"/>
      <point x="261" y="-11"/>
      <point x="172" y="-11" type="curve" smooth="yes"/>
      <point x="83" y="-11"/>
      <point x="37" y="83"/>
      <point x="37" y="262" type="curve" smooth="yes"/>
      <point x="37" y="441"/>
      <point x="83" y="536"/>
      <point x="172" y="536" type="curve" smooth="yes"/>
      <point x="261" y="536"/>
      <point x="307" y="441"/>
    </contour>
    <contour>
      <point x="244" y="262" type="curve" smooth="yes"/>
      <point x="244" y="407"/>
      <point x="220" y="475"/>
      <point x="171" y="475" type="curve" smooth="yes"/>
      <point x="122" y="475"/>
      <point x="100" y="407"/>
      <point x="100" y="262" type="curve" smooth="yes"/>
      <point x="100" y="117"/>
      <point x="124" y="50"/>
      <point x="173" y="50" type="curve" smooth="yes"/>
      <point x="222" y="50"/>
      <point x="244" y="117"/>
    </contour>
  </outline>
</glyph>
<glyph name="q" format="1">
  <advance width="339"/>
  <unicode hex="0071"/>
  <outline>
    <contour>
      <point x="287" y="-155" type="line"/>
      <point x="225" y="-193" type="line"/>
      <point x="225" y="27" type="line"/>
      <point x="206" y="6"/>
      <point x="179" y="-11"/>
      <point x="150" y="-11" type="curve" smooth="yes"/>
      <point x="62" y="-11"/>
      <point x="37" y="94"/>
      <point x="37" y="261" type="curve" smooth="yes"/>
      <point x="37" y="436"/>
      <point x="67" y="536"/>
      <point x="154" y="536" type="curve" smooth="yes"/>
      <point x="183" y="536"/>
      <point x="206" y="520"/>
      <point x="225" y="502" type="curve"/>
      <point x="225" y="525" type="line"/>
      <point x="287" y="525" type="line"/>
    </contour>
    <contour>
      <point x="225" y="79" type="curve"/>
      <point x="225" y="445" type="line"/>
      <point x="202" y="466"/>
      <point x="182" y="477"/>
      <point x="158" y="477" type="curve" smooth="yes"/>
      <point x="111" y="477"/>
      <point x="100" y="385"/>
      <point x="100" y="263" type="curve" smooth="yes"/>
      <point x="100" y="114"/>
      <point x="116" y="48"/>
      <point x="162" y="48" type="curve" smooth="yes"/>
      <point x="184" y="48"/>
      <point x="206" y="61"/>
    </contour>
  </outline>
</glyph>
<glyph name="r" format="1">
  <advance width="246"/>
  <unicode hex="0072"/>
  <outline>
    <contour>
      <point x="237" y="526" type="curve"/>
      <point x="218" y="461" type="line"/>
      <point x="201" y="470"/>
      <point x="189" y="473"/>
      <point x="170" y="473" type="curve" smooth="yes"/>
      <point x="147" y="473"/>
      <point x="128" y="461"/>
      <point x="114" y="445" type="curve"/>
      <point x="114" y="0" type="line"/>
      <point x="52" y="0" type="line"/>
      <point x="52" y="525" type="line"/>
      <point x="114" y="525" type="line"/>
      <point x="114" y="499" type="line"/>
      <point x="133" y="520"/>
      <point x="158" y="536"/>
      <point x="188" y="536" type="curve" smooth="yes"/>
      <point x="212" y="536"/>
      <point x="224" y="532"/>
    </contour>
  </outline>
</glyph>
<glyph name="s" format="1">
  <advance width="293"/>
  <unicode hex="0073"/>
  <outline>
    <contour>
      <point x="263" y="118" type="curve" smooth="yes"/>
      <point x="263" y="46"/>
      <point x="215" y="-11"/>
      <point x="145" y="-11" type="curve" smooth="yes"/>
      <point x="83" y="-11"/>
      <point x="47" y="35"/>
      <point x="29" y="97" type="curve"/>
      <point x="82" y="128" type="line"/>
      <point x="99" y="74"/>
      <point x="117" y="49"/>
      <point x="146" y="49" type="curve" smooth="yes"/>
      <point x="183" y="49"/>
      <point x="202" y="77"/>
      <point x="202" y="112" type="curve" smooth="yes"/>
      <point x="202" y="157"/>
      <point x="194" y="185"/>
      <point x="128" y="242" type="curve" smooth="yes"/>
      <point x="67" y="295"/>
      <point x="34" y="337"/>
      <point x="34" y="409" type="curve" smooth="yes"/>
      <point x="34" y="480"/>
      <point x="78" y="536"/>
      <point x="145" y="536" type="curve" smooth="yes"/>
      <point x="205" y="536"/>
      <point x="237" y="497"/>
      <point x="256" y="441" type="curve"/>
      <point x="200" y="410" type="line"/>
      <point x="187" y="447"/>
      <point x="172" y="476"/>
      <point x="142" y="476" type="curve" smooth="yes"/>
      <point x="113" y="476"/>
      <point x="95" y="452"/>
      <point x="95" y="415" type="curve" smooth="yes"/>
      <point x="95" y="376"/>
      <point x="106" y="350"/>
      <point x="168" y="297" type="curve" smooth="yes"/>
      <point x="234" y="241"/>
      <point x="263" y="191"/>
    </contour>
  </outline>
</glyph>
<glyph name="t" format="1">
  <advance width="227"/>
  <unicode hex="0074"/>
  <outline>
    <contour>
      <point x="205" y="63" type="curve"/>
      <point x="198" y="2" type="line"/>
      <point x="180" y="-6"/>
      <point x="161" y="-11"/>
      <point x="138" y="-11" type="curve" smooth="yes"/>
      <point x="81" y="-11"/>
      <point x="62" y="30"/>
      <point x="62" y="93" type="curve" smooth="yes"/>
      <point x="62" y="468" type="line"/>
      <point x="18" y="468" type="line"/>
      <point x="18" y="525" type="line"/>
      <point x="62" y="525" type="line"/>
      <point x="62" y="691" type="line"/>
      <point x="122" y="729" type="line"/>
      <point x="122" y="525" type="line"/>
      <point x="197" y="525" type="line"/>
      <point x="197" y="468" type="line"/>
      <point x="122" y="468" type="line"/>
      <point x="122" y="95" type="line" smooth="yes"/>
      <point x="122" y="65"/>
      <point x="134" y="49"/>
      <point x="151" y="49" type="curve" smooth="yes"/>
      <point x="169" y="49"/>
      <point x="183" y="52"/>
    </contour>
  </outline>
</glyph>
<glyph name="u" format="1">
  <advance width="341"/>
  <unicode hex="0075"/>
  <outline>
    <contour>
      <point x="289" y="0" type="line"/>
      <point x="227" y="0" type="line"/>
      <point x="227" y="26" type="line"/>
      <point x="206" y="6"/>
      <point x="180" y="-11"/>
      <point x="142" y="-11" type="curve" smooth="yes"/>
      <point x="74" y="-11"/>
      <point x="49" y="42"/>
      <point x="49" y="129" type="curve" smooth="yes"/>
      <point x="49" y="525" type="line"/>
      <point x="111" y="525" type="line"/>
      <point x="111" y="133" type="line" smooth="yes"/>
      <point x="111" y="70"/>
      <point x="126" y="48"/>
      <point x="162" y="48" type="curve" smooth="yes"/>
      <point x="184" y="48"/>
      <point x="208" y="61"/>
      <point x="227" y="79" type="curve"/>
      <point x="227" y="525" type="line"/>
      <point x="289" y="525" type="line"/>
    </contour>
  </outline>
</glyph>
<glyph name="v" format="1">
  <advance width="311"/>
  <unicode hex="0076"/>
  <outline>
    <contour>
      <point x="289" y="525" type="line"/>
      <point x="187" y="0" type="line"/>
      <point x="124" y="0" type="line"/>
      <point x="22" y="525" type="line"/>
      <point x="88" y="525" type="line"/>
      <point x="137" y="219" type="line" smooth="yes"/>
      <point x="145" y="168"/>
      <point x="152" y="123"/>
      <point x="156" y="82" type="curve"/>
      <point x="160" y="123"/>
      <point x="167" y="168"/>
      <point x="175" y="219" type="curve" smooth="yes"/>
      <point x="224" y="525" type="line"/>
    </contour>
  </outline>
</glyph>
<glyph name="w" format="1">
  <advance width="420"/>
  <unicode hex="0077"/>
  <outline>
    <contour>
      <point x="394" y="525" type="line"/>
      <point x="327" y="0" type="line"/>
      <point x="270" y="0" type="line"/>
      <point x="227" y="279" type="line" smooth="yes"/>
      <point x="218" y="336"/>
      <point x="214" y="374"/>
      <point x="210" y="429" type="curve"/>
      <point x="206" y="374"/>
      <point x="202" y="337"/>
      <point x="193" y="279" type="curve" smooth="yes"/>
      <point x="150" y="0" type="line"/>
      <point x="93" y="0" type="line"/>
      <point x="26" y="525" type="line"/>
      <point x="90" y="525" type="line"/>
      <point x="111" y="287" type="line" smooth="yes"/>
      <point x="116" y="226"/>
      <point x="122" y="167"/>
      <point x="124" y="119" type="curve"/>
      <point x="128" y="167"/>
      <point x="136" y="226"/>
      <point x="145" y="284" type="curve" smooth="yes"/>
      <point x="181" y="525" type="line"/>
      <point x="239" y="525" type="line"/>
      <point x="275" y="284" type="line" smooth="yes"/>
      <point x="284" y="226"/>
      <point x="292" y="167"/>
      <point x="296" y="119" type="curve"/>
      <point x="298" y="167"/>
      <point x="304" y="226"/>
      <point x="309" y="287" type="curve" smooth="yes"/>
      <point x="330" y="525" type="line"/>
    </contour>
  </outline>
</glyph>
<glyph name="x" format="1">
  <advance width="297"/>
  <unicode hex="0078"/>
  <outline>
    <contour>
      <point x="277" y="0" type="line"/>
      <point x="210" y="0" type="line"/>
      <point x="171" y="130" type="line" smooth="yes"/>
      <point x="163" y="158"/>
      <point x="152" y="195"/>
      <point x="148" y="218" type="curve"/>
      <point x="144" y="195"/>
      <point x="134" y="158"/>
      <point x="125" y="130" type="curve" smooth="yes"/>
      <point x="85" y="0" type="line"/>
      <point x="20" y="0" type="line"/>
      <point x="116" y="282" type="line"/>
      <point x="33" y="525" type="line"/>
      <point x="99" y="525" type="line"/>
      <point x="125" y="435" type="line" smooth="yes"/>
      <point x="133" y="407"/>
      <point x="144" y="370"/>
      <point x="148" y="347" type="curve"/>
      <point x="152" y="370"/>
      <point x="163" y="407"/>
      <point x="171" y="435" type="curve" smooth="yes"/>
      <point x="198" y="525" type="line"/>
      <point x="264" y="525" type="line"/>
      <point x="180" y="282" type="line"/>
    </contour>
  </outline>
</glyph>
<glyph name="z" format="1">
  <advance width="285"/>
  <unicode hex="007A"/>
  <outline>
    <contour>
      <point x="249" y="0" type="line"/>
      <point x="26" y="0" type="line"/>
      <point x="26" y="49" type="line"/>
      <point x="185" y="469" type="line"/>
      <point x="40" y="469" type="line"/>
      <point x="40" y="525" type="line"/>
      <point x="249" y="525" type="line"/>
      <point x="249" y="476" type="line"/>
      <point x="90" y="56" type="line"/>
      <point x="249" y="56" type="line"/>
    </contour>
  </outline>
</glyph>
<glyph name="braceleft" format="1">
  <advance width="255"/>
  <unicode hex="007B"/>
  <outline>
    <contour>
      <point x="235" y="-110" type="line"/>
      <point x="122" y="-103"/>
      <point x="90" y="-60"/>
      <point x="90" y="69" type="curve" smooth="yes"/>
      <point x="90" y="180" type="line" smooth="yes"/>
      <point x="90" y="252"/>
      <point x="70" y="272"/>
      <point x="35" y="272" type="curve" smooth="yes"/>
      <point x="17" y="272" type="line"/>
      <point x="17" y="329" type="line"/>
      <point x="35" y="329" type="line" smooth="yes"/>
      <point x="70" y="329"/>
      <point x="90" y="349"/>
      <point x="90" y="421" type="curve" smooth="yes"/>
      <point x="90" y="532" type="line" smooth="yes"/>
      <point x="90" y="661"/>
      <point x="122" y="704"/>
      <point x="235" y="711" type="curve"/>
      <point x="235" y="660" type="line"/>
      <point x="162" y="648"/>
      <point x="150" y="627"/>
      <point x="150" y="543" type="curve" smooth="yes"/>
      <point x="150" y="427" type="line" smooth="yes"/>
      <point x="150" y="351"/>
      <point x="137" y="319"/>
      <point x="94" y="301" type="curve"/>
      <point x="137" y="283"/>
      <point x="150" y="250"/>
      <point x="150" y="174" type="curve" smooth="yes"/>
      <point x="150" y="58" type="line" smooth="yes"/>
      <point x="150" y="-26"/>
      <point x="162" y="-47"/>
      <point x="235" y="-59" type="curve"/>
    </contour>
  </outline>
</glyph>
<glyph name="bar" format="1">
  <advance width="191"/>
  <unicode hex="007C"/>
  <outline>
    <contour>
      <point x="126" y="-185" type="line"/>
      <point x="65" y="-185" type="line"/>
      <point x="65" y="800" type="line"/>
      <point x="126" y="800" type="line"/>
    </contour>
  </outline>
</glyph>
<glyph name="braceright" format="1">
  <advance width="255"/>
  <unicode hex="007D"/>
  <outline>
    <contour>
      <point x="238" y="272" type="line"/>
      <point x="220" y="272" type="line" smooth="yes"/>
      <point x="185" y="272"/>
      <point x="165" y="252"/>
      <point x="165" y="180" type="curve" smooth="yes"/>
      <point x="165" y="69" type="line" smooth="yes"/>
      <point x="165" y="-60"/>
      <point x="133" y="-103"/>
      <point x="20" y="-110" type="curve"/>
      <point x="20" y="-59" type="line"/>
      <point x="93" y="-47"/>
      <point x="105" y="-26"/>
      <point x="105" y="58" type="curve" smooth="yes"/>
      <point x="105" y="174" type="line" smooth="yes"/>
      <point x="105" y="250"/>
      <point x="118" y="282"/>
      <point x="161" y="300" type="curve"/>
      <point x="118" y="318"/>
      <point x="105" y="351"/>
      <point x="105" y="427" type="curve" smooth="yes"/>
      <point x="105" y="543" type="line" smooth="yes"/>
      <point x="105" y="627"/>
      <point x="93" y="648"/>
      <point x="20" y="660" type="curve"/>
      <point x="20" y="711" type="line"/>
      <point x="133" y="704"/>
      <point x="165" y="661"/>
      <point x="165" y="532" type="curve" smooth="yes"/>
      <point x="165" y="421" type="line" smooth="yes"/>
      <point x="165" y="349"/>
      <point x="185" y="329"/>
      <point x="220" y="329" type="curve" smooth="yes"/>
      <point x="238" y="329" type="line"/>
    </contour>
  </outline>
</glyph>
<glyph name="asciitilde" format="1">
  <advance width="313"/>
  <unicode hex="007E"/>
  <outline>
    <contour>
      <point x="290" y="429" type="line"/>
      <point x="276" y="354"/>
      <point x="249" y="305"/>
      <point x="208" y="305" type="curve" smooth="yes"/>
      <point x="183" y="305"/>
      <point x="169" y="315"/>
      <point x="138" y="353" type="curve" smooth="yes"/>
      <point x="123" y="372"/>
      <point x="115" y="380"/>
      <point x="106" y="380" type="curve" smooth="yes"/>
      <point x="93" y="380"/>
      <point x="85" y="370"/>
      <point x="71" y="305" type="curve"/>
      <point x="22" y="319" type="line"/>
      <point x="36" y="394"/>
      <point x="63" y="443"/>
      <point x="104" y="443" type="curve" smooth="yes"/>
      <point x="129" y="443"/>
      <point x="143" y="433"/>
      <point x="174" y="395" type="curve" smooth="yes"/>
      <point x="189" y="376"/>
      <point x="197" y="368"/>
      <point x="206" y="368" type="curve" smooth="yes"/>
      <point x="219" y="368"/>
      <point x="227" y="378"/>
      <point x="241" y="443" type="curve"/>
    </contour>
  </outline>
</glyph>
<glyph name="exclamdown" format="1">
  <advance width="188"/>
  <unicode hex="00A1"/>
  <outline>
    <contour>
      <point x="137" y="667" type="curve" smooth="yes"/>
      <point x="137" y="641"/>
      <point x="119" y="622"/>
      <point x="94" y="622" type="curve" smooth="yes"/>
      <point x="67" y="622"/>
      <point x="51" y="641"/>
      <point x="51" y="667" type="curve" smooth="yes"/>
      <point x="51" y="692"/>
      <point x="67" y="711"/>
      <point x="94" y="711" type="curve" smooth="yes"/>
      <point x="119" y="711"/>
      <point x="137" y="692"/>
    </contour>
    <contour>
      <point x="126" y="0" type="line"/>
      <point x="62" y="0" type="line"/>
      <point x="62" y="364" type="line"/>
      <point x="74" y="548" type="line"/>
      <point x="114" y="548" type="line"/>
      <point x="126" y="364" type="line"/>
    </contour>
  </outline>
</glyph>
<glyph name="cent" format="1">
  <advance width="305"/>
  <unicode hex="00A2"/>
  <outline>
    <contour>
      <point x="277" y="193" type="line"/>
      <point x="258" y="138"/>
      <point x="232" y="100"/>
      <point x="195" y="87" type="curve"/>
      <point x="195" y="-11" type="line"/>
      <point x="134" y="-11" type="line"/>
      <point x="134" y="87" type="line"/>
      <point x="70" y="110"/>
      <point x="37" y="204"/>
      <point x="37" y="352" type="curve" smooth="yes"/>
      <point x="37" y="507"/>
      <point x="71" y="601"/>
      <point x="134" y="623" type="curve"/>
      <point x="134" y="720" type="line"/>
      <point x="195" y="720" type="line"/>
      <point x="195" y="625" type="line"/>
      <point x="239" y="611"/>
      <point x="261" y="566"/>
      <point x="275" y="512" type="curve"/>
      <point x="220" y="484" type="line"/>
      <point x="206" y="533"/>
      <point x="196" y="568"/>
      <point x="164" y="568" type="curve" smooth="yes"/>
      <point x="124" y="568"/>
      <point x="100" y="503"/>
      <point x="100" y="353" type="curve" smooth="yes"/>
      <point x="100" y="228"/>
      <point x="117" y="143"/>
      <point x="167" y="143" type="curve" smooth="yes"/>
      <point x="193" y="143"/>
      <point x="205" y="166"/>
      <point x="227" y="223" type="curve"/>
    </contour>
  </outline>
</glyph>
<glyph name="sterling" format="1">
  <advance width="345"/>
  <unicode hex="00A3"/>
  <outline>
    <contour>
      <point x="313" y="558" type="curve"/>
      <point x="250" y="541" type="line"/>
      <point x="234" y="616"/>
      <point x="215" y="649"/>
      <point x="175" y="649" type="curve" smooth="yes"/>
      <point x="132" y="649"/>
      <point x="119" y="607"/>
      <point x="119" y="562" type="curve" smooth="yes"/>
      <point x="119" y="527"/>
      <point x="128" y="479"/>
      <point x="139" y="443" type="curve" smooth="yes"/>
      <point x="146" y="418"/>
      <point x="153" y="390"/>
      <point x="157" y="357" type="curve"/>
      <point x="241" y="357" type="line"/>
      <point x="241" y="296" type="line"/>
      <point x="160" y="296" type="line"/>
      <point x="159" y="193"/>
      <point x="136" y="120"/>
      <point x="110" y="61" type="curve"/>
      <point x="310" y="61" type="line"/>
      <point x="310" y="0" type="line"/>
      <point x="43" y="0" type="line"/>
      <point x="43" y="60" type="line"/>
      <point x="77" y="130"/>
      <point x="98" y="197"/>
      <point x="98" y="296" type="curve"/>
      <point x="43" y="296" type="line"/>
      <point x="43" y="357" type="line"/>
      <point x="94" y="357" type="line"/>
      <point x="91" y="380"/>
      <point x="85" y="401"/>
      <point x="77" y="424" type="curve" smooth="yes"/>
      <point x="65" y="460"/>
      <point x="54" y="508"/>
      <point x="54" y="556" type="curve" smooth="yes"/>
      <point x="54" y="649"/>
      <point x="98" y="711"/>
      <point x="178" y="711" type="curve" smooth="yes"/>
      <point x="255" y="711"/>
      <point x="290" y="662"/>
    </contour>
  </outline>
</glyph>
<glyph name="yen" format="1">
  <advance width="334"/>
  <unicode hex="00A5"/>
  <outline>
    <contour>
      <point x="317" y="700" type="line"/>
      <point x="197" y="298" type="line"/>
      <point x="197" y="197" type="line"/>
      <point x="279" y="197" type="line"/>
      <point x="279" y="137" type="line"/>
      <point x="197" y="137" type="line"/>
      <point x="197" y="0" type="line"/>
      <point x="137" y="0" type="line"/>
      <point x="137" y="137" type="line"/>
      <point x="55" y="137" type="line"/>
      <point x="55" y="197" type="line"/>
      <point x="137" y="197" type="line"/>
      <point x="137" y="296" type="line"/>
      <point x="17" y="700" type="line"/>
      <point x="84" y="700" type="line"/>
      <point x="131" y="525" type="line" smooth="yes"/>
      <point x="147" y="465"/>
      <point x="161" y="410"/>
      <point x="168" y="369" type="curve"/>
      <point x="175" y="410"/>
      <point x="189" y="467"/>
      <point x="205" y="525" type="curve" smooth="yes"/>
      <point x="252" y="700" type="line"/>
    </contour>
  </outline>
</glyph>
<glyph name="section" format="1">
  <advance width="342"/>
  <unicode hex="00A7"/>
  <outline>
    <contour>
      <point x="311" y="268" type="curve" smooth="yes"/>
      <point x="311" y="198"/>
      <point x="281" y="143"/>
      <point x="240" y="102" type="curve"/>
      <point x="266" y="72"/>
      <point x="282" y="34"/>
      <point x="282" y="-22" type="curve" smooth="yes"/>
      <point x="282" y="-115"/>
      <point x="237" y="-164"/>
      <point x="169" y="-164" type="curve" smooth="yes"/>
      <point x="99" y="-164"/>
      <point x="68" y="-125"/>
      <point x="44" y="-26" type="curve"/>
      <point x="107" y="-9" type="line"/>
      <point x="125" y="-82"/>
      <point x="139" y="-102"/>
      <point x="172" y="-102" type="curve" smooth="yes"/>
      <point x="203" y="-102"/>
      <point x="218" y="-74"/>
      <point x="218" y="-28" type="curve" smooth="yes"/>
      <point x="218" y="32"/>
      <point x="201" y="58"/>
      <point x="148" y="91" type="curve" smooth="yes"/>
      <point x="73" y="138"/>
      <point x="31" y="176"/>
      <point x="31" y="279" type="curve" smooth="yes"/>
      <point x="31" y="349"/>
      <point x="61" y="404"/>
      <point x="102" y="445" type="curve"/>
      <point x="76" y="475"/>
      <point x="60" y="513"/>
      <point x="60" y="569" type="curve" smooth="yes"/>
      <point x="60" y="662"/>
      <point x="105" y="711"/>
      <point x="173" y="711" type="curve" smooth="yes"/>
      <point x="243" y="711"/>
      <point x="274" y="672"/>
      <point x="298" y="573" type="curve"/>
      <point x="235" y="556" type="line"/>
      <point x="217" y="629"/>
      <point x="203" y="649"/>
      <point x="170" y="649" type="curve" smooth="yes"/>
      <point x="139" y="649"/>
      <point x="124" y="621"/>
      <point x="124" y="575" type="curve" smooth="yes"/>
      <point x="124" y="515"/>
      <point x="141" y="489"/>
      <point x="194" y="456" type="curve" smooth="yes"/>
      <point x="269" y="409"/>
      <point x="311" y="371"/>
    </contour>
    <contour>
      <point x="247" y="262" type="curve" smooth="yes"/>
      <point x="247" y="331"/>
      <point x="223" y="362"/>
      <point x="173" y="391" type="curve" smooth="yes"/>
      <point x="162" y="397"/>
      <point x="152" y="404"/>
      <point x="142" y="410" type="curve"/>
      <point x="110" y="377"/>
      <point x="95" y="335"/>
      <point x="95" y="285" type="curve" smooth="yes"/>
      <point x="95" y="216"/>
      <point x="119" y="185"/>
      <point x="169" y="156" type="curve" smooth="yes"/>
      <point x="180" y="150"/>
      <point x="190" y="143"/>
      <point x="200" y="136" type="curve"/>
      <point x="232" y="170"/>
      <point x="247" y="212"/>
    </contour>
  </outline>
</glyph>
<glyph name="dieresis" format="1">
  <advance width="330"/>
  <unicode hex="00A8"/>
  <outline>
    <contour>
      <point x="286" y="651" type="curve" smooth="yes"/>
      <point x="286" y="625"/>
      <point x="264" y="603"/>
      <point x="238" y="603" type="curve" smooth="yes"/>
      <point x="212" y="603"/>
      <point x="190" y="625"/>
      <point x="190" y="651" type="curve" smooth="yes"/>
      <point x="190" y="677"/>
      <point x="212" y="699"/>
      <point x="238" y="699" type="curve" smooth="yes"/>
      <point x="264" y="699"/>
      <point x="286" y="677"/>
    </contour>
    <contour>
      <point x="140" y="651" type="curve" smooth="yes"/>
      <point x="140" y="625"/>
      <point x="118" y="603"/>
      <point x="93" y="603" type="curve" smooth="yes"/>
      <point x="66" y="603"/>
      <point x="44" y="625"/>
      <point x="44" y="651" type="curve" smooth="yes"/>
      <point x="44" y="677"/>
      <point x="66" y="699"/>
      <point x="93" y="699" type="curve" smooth="yes"/>
      <point x="118" y="699"/>
      <point x="140" y="677"/>
    </contour>
  </outline>
</glyph>
<glyph name="copyright" format="1">
  <advance width="483"/>
  <unicode hex="00A9"/>
  <outline>
    <contour>
      <point x="446" y="350" type="curve" smooth="yes"/>
      <point x="446" y="135"/>
      <point x="374" y="-11"/>
      <point x="241" y="-11" type="curve" smooth="yes"/>
      <point x="108" y="-11"/>
      <point x="37" y="135"/>
      <point x="37" y="350" type="curve" smooth="yes"/>
      <point x="37" y="565"/>
      <point x="108" y="711"/>
      <point x="241" y="711" type="curve" smooth="yes"/>
      <point x="374" y="711"/>
      <point x="446" y="565"/>
    </contour>
    <contour>
      <point x="400" y="350" type="curve" smooth="yes"/>
      <point x="400" y="537"/>
      <point x="352" y="667"/>
      <point x="241" y="667" type="curve" smooth="yes"/>
      <point x="130" y="667"/>
      <point x="83" y="537"/>
      <point x="83" y="350" type="curve" smooth="yes"/>
      <point x="83" y="163"/>
      <point x="130" y="33"/>
      <point x="241" y="33" type="curve" smooth="yes"/>
      <point x="352" y="33"/>
      <point x="400" y="163"/>
    </contour>
    <contour>
      <point x="320" y="249" type="line"/>
      <point x="308" y="186"/>
      <point x="287" y="149"/>
      <point x="238" y="149" type="curve" smooth="yes"/>
      <point x="178" y="149"/>
      <point x="156" y="218"/>
      <point x="156" y="351" type="curve" smooth="yes"/>
      <point x="156" y="482"/>
      <point x="180" y="553"/>
      <point x="239" y="553" type="curve" smooth="yes"/>
      <point x="286" y="553"/>
      <point x="307" y="516"/>
      <point x="319" y="451" type="curve"/>
      <point x="274" y="439" type="line"/>
      <point x="263" y="495"/>
      <point x="255" y="505"/>
      <point x="238" y="505" type="curve" smooth="yes"/>
      <point x="211" y="505"/>
      <point x="203" y="458"/>
      <point x="203" y="351" type="curve" smooth="yes"/>
      <point x="203" y="240"/>
      <point x="212" y="198"/>
      <point x="240" y="198" type="curve" smooth="yes"/>
      <point x="259" y="198"/>
      <point x="267" y="211"/>
      <point x="277" y="262" type="curve"/>
    </contour>
  </outline>
</glyph>
<glyph name="ordfeminine" format="1">
  <advance width="290"/>
  <unicode hex="00AA"/>
  <outline>
    <contour>
      <point x="239" y="282" type="line"/>
      <point x="184" y="282" type="line"/>
      <point x="184" y="298" type="line"/>
      <point x="166" y="283"/>
      <point x="148" y="273"/>
      <point x="125" y="273" type="curve" smooth="yes"/>
      <point x="70" y="273"/>
      <point x="42" y="323"/>
      <point x="42" y="414" type="curve" smooth="yes"/>
      <point x="42" y="510"/>
      <point x="75" y="554"/>
      <point x="138" y="554" type="curve" smooth="yes"/>
      <point x="157" y="554"/>
      <point x="171" y="550"/>
      <point x="184" y="541" type="curve"/>
      <point x="184" y="604" type="line" smooth="yes"/>
      <point x="184" y="641"/>
      <point x="171" y="657"/>
      <point x="146" y="657" type="curve" smooth="yes"/>
      <point x="129" y="657"/>
      <point x="112" y="645"/>
      <point x="87" y="619" type="curve"/>
      <point x="54" y="662" type="line"/>
      <point x="86" y="692"/>
      <point x="116" y="711"/>
      <point x="149" y="711" type="curve" smooth="yes"/>
      <point x="206" y="711"/>
      <point x="239" y="690"/>
      <point x="239" y="608" type="curve" smooth="yes"/>
    </contour>
    <contour>
      <point x="184" y="349" type="curve"/>
      <point x="184" y="489" type="line"/>
      <point x="170" y="497"/>
      <point x="162" y="502"/>
      <point x="140" y="502" type="curve" smooth="yes"/>
      <point x="105" y="502"/>
      <point x="99" y="469"/>
      <point x="99" y="416" type="curve" smooth="yes"/>
      <point x="99" y="368"/>
      <point x="105" y="325"/>
      <point x="135" y="325" type="curve" smooth="yes"/>
      <point x="150" y="325"/>
      <point x="169" y="335"/>
    </contour>
  </outline>
</glyph>
<glyph name="guillemotleft" format="1">
  <advance width="380"/>
  <unicode hex="00AB"/>
  <outline>
    <contour>
      <point x="354" y="0" type="line"/>
      <point x="288" y="0" type="line"/>
      <point x="155" y="262" type="line"/>
      <point x="288" y="525" type="line"/>
      <point x="354" y="525" type="line"/>
      <point x="221" y="263" type="line"/>
    </contour>
    <contour>
      <point x="212" y="0" type="line"/>
      <point x="146" y="0" type="line"/>
      <point x="13" y="262" type="line"/>
      <point x="146" y="525" type="line"/>
      <point x="212" y="525" type="line"/>
      <point x="79" y="263" type="line"/>
    </contour>
  </outline>
</glyph>
<glyph name="degree" format="1">
  <advance width="340"/>
  <unicode hex="00B0"/>
  <outline>
    <contour>
      <point x="310" y="568" type="curve" smooth="yes"/>
      <point x="310" y="486"/>
      <point x="252" y="423"/>
      <point x="170" y="423" type="curve" smooth="yes"/>
      <point x="89" y="423"/>
      <point x="30" y="486"/>
      <point x="30" y="568" type="curve" smooth="yes"/>
      <point x="30" y="648"/>
      <point x="89" y="711"/>
      <point x="170" y="711" type="curve" smooth="yes"/>
      <point x="252" y="711"/>
      <point x="310" y="648"/>
    </contour>
    <contour>
      <point x="255" y="568" type="curve" smooth="yes"/>
      <point x="255" y="620"/>
      <point x="221" y="658"/>
      <point x="170" y="658" type="curve" smooth="yes"/>
      <point x="120" y="658"/>
      <point x="85" y="620"/>
      <point x="85" y="568" type="curve" smooth="yes"/>
      <point x="85" y="514"/>
      <point x="120" y="475"/>
      <point x="170" y="475" type="curve" smooth="yes"/>
      <point x="221" y="475"/>
      <point x="255" y="514"/>
    </contour>
  </outline>
</glyph>
<glyph name="acute" format="1">
  <advance width="330"/>
  <unicode hex="00B4"/>
  <outline>
    <contour>
      <point x="262" y="755" type="line"/>
      <point x="146" y="595" type="line"/>
      <point x="99" y="595" type="line"/>
      <point x="175" y="755" type="line"/>
    </contour>
  </outline>
</glyph>
<glyph name="paragraph" format="1">
  <advance width="475"/>
  <unicode hex="00B6"/>
  <outline>
    <contour>
      <point x="418" y="-185" type="line"/>
      <point x="358" y="-185" type="line"/>
      <point x="358" y="642" type="line"/>
      <point x="293" y="642" type="line"/>
      <point x="293" y="-185" type="line"/>
      <point x="233" y="-185" type="line"/>
      <point x="233" y="314" type="line"/>
      <point x="212" y="314" type="line" smooth="yes"/>
      <point x="114" y="314"/>
      <point x="31" y="383"/>
      <point x="31" y="507" type="curve" smooth="yes"/>
      <point x="31" y="631"/>
      <point x="115" y="700"/>
      <point x="212" y="700" type="curve" smooth="yes"/>
      <point x="418" y="700" type="line"/>
    </contour>
  </outline>
</glyph>
<glyph name="periodcentered" format="1">
  <advance width="148"/>
  <unicode hex="00B7"/>
  <outline>
    <contour>
      <point x="118" y="367" type="curve" smooth="yes"/>
      <point x="118" y="342"/>
      <point x="102" y="323"/>
      <point x="75" y="323" type="curve" smooth="yes"/>
      <point x="50" y="323"/>
      <point x="32" y="342"/>
      <point x="32" y="367" type="curve" smooth="yes"/>
      <point x="32" y="393"/>
      <point x="50" y="412"/>
      <point x="75" y="412" type="curve" smooth="yes"/>
      <point x="102" y="412"/>
      <point x="118" y="393"/>
    </contour>
  </outline>
</glyph>
<glyph name="cedilla" format="1">
  <advance width="330"/>
  <unicode hex="00B8"/>
  <outline>
    <contour>
      <point x="241" y="-113" type="curve" smooth="yes"/>
      <point x="241" y="-169"/>
      <point x="199" y="-193"/>
      <point x="157" y="-193" type="curve" smooth="yes"/>
      <point x="132" y="-193"/>
      <point x="103" y="-181"/>
      <point x="79" y="-164" type="curve"/>
      <point x="95" y="-136" type="line"/>
      <point x="117" y="-151"/>
      <point x="138" y="-158"/>
      <point x="155" y="-158" type="curve" smooth="yes"/>
      <point x="181" y="-158"/>
      <point x="193" y="-141"/>
      <point x="193" y="-114" type="curve" smooth="yes"/>
      <point x="193" y="-91"/>
      <point x="184" y="-81"/>
      <point x="167" y="-81" type="curve" smooth="yes"/>
      <point x="157" y="-81"/>
      <point x="149" y="-84"/>
      <point x="140" y="-92" type="curve"/>
      <point x="109" y="-79" type="line"/>
      <point x="137" y="0" type="line"/>
      <point x="173" y="0" type="line"/>
      <point x="154" y="-53" type="line"/>
      <point x="162" y="-47"/>
      <point x="171" y="-44"/>
      <point x="186" y="-44" type="curve" smooth="yes"/>
      <point x="219" y="-44"/>
      <point x="241" y="-69"/>
    </contour>
  </outline>
</glyph>
<glyph name="ordmasculine" format="1">
  <advance width="312"/>
  <unicode hex="00BA"/>
  <outline>
    <contour>
      <point x="267" y="492" type="curve" smooth="yes"/>
      <point x="267" y="349"/>
      <point x="228" y="274"/>
      <point x="156" y="274" type="curve" smooth="yes"/>
      <point x="84" y="274"/>
      <point x="45" y="349"/>
      <point x="45" y="492" type="curve" smooth="yes"/>
      <point x="45" y="635"/>
      <point x="84" y="711"/>
      <point x="156" y="711" type="curve" smooth="yes"/>
      <point x="228" y="711"/>
      <point x="267" y="635"/>
    </contour>
    <contour>
      <point x="207" y="492" type="curve" smooth="yes"/>
      <point x="207" y="604"/>
      <point x="191" y="655"/>
      <point x="155" y="655" type="curve" smooth="yes"/>
      <point x="119" y="655"/>
      <point x="105" y="604"/>
      <point x="105" y="492" type="curve" smooth="yes"/>
      <point x="105" y="380"/>
      <point x="121" y="329"/>
      <point x="157" y="329" type="curve" smooth="yes"/>
      <point x="193" y="329"/>
      <point x="207" y="380"/>
    </contour>
  </outline>
</glyph>
<glyph name="guillemotright" format="1">
  <advance width="380"/>
  <unicode hex="00BB"/>
  <outline>
    <contour>
      <point x="367" y="263" type="line"/>
      <point x="234" y="0" type="line"/>
      <point x="168" y="0" type="line"/>
      <point x="301" y="262" type="line"/>
      <point x="168" y="525" type="line"/>
      <point x="234" y="525" type="line"/>
    </contour>
    <contour>
      <point x="225" y="263" type="line"/>
      <point x="92" y="0" type="line"/>
      <point x="26" y="0" type="line"/>
      <point x="159" y="262" type="line"/>
      <point x="26" y="525" type="line"/>
      <point x="92" y="525" type="line"/>
    </contour>
  </outline>
</glyph>
<glyph name="questiondown" format="1">
  <advance width="305"/>
  <unicode hex="00BF"/>
  <outline>
    <contour>
      <point x="216" y="667" type="curve" smooth="yes"/>
      <point x="216" y="641"/>
      <point x="198" y="622"/>
      <point x="173" y="622" type="curve" smooth="yes"/>
      <point x="146" y="622"/>
      <point x="130" y="641"/>
      <point x="130" y="667" type="curve" smooth="yes"/>
      <point x="130" y="692"/>
      <point x="146" y="711"/>
      <point x="173" y="711" type="curve" smooth="yes"/>
      <point x="198" y="711"/>
      <point x="216" y="692"/>
    </contour>
    <contour>
      <point x="281" y="146" type="line"/>
      <point x="263" y="50"/>
      <point x="233" y="-11"/>
      <point x="146" y="-11" type="curve" smooth="yes"/>
      <point x="66" y="-11"/>
      <point x="31" y="59"/>
      <point x="31" y="153" type="curve" smooth="yes"/>
      <point x="31" y="218"/>
      <point x="55" y="283"/>
      <point x="96" y="336" type="curve" smooth="yes"/>
      <point x="131" y="381"/>
      <point x="143" y="431"/>
      <point x="143" y="533" type="curve"/>
      <point x="203" y="533" type="line"/>
      <point x="203" y="410"/>
      <point x="193" y="357"/>
      <point x="140" y="290" type="curve" smooth="yes"/>
      <point x="109" y="251"/>
      <point x="97" y="201"/>
      <point x="97" y="156" type="curve" smooth="yes"/>
      <point x="97" y="95"/>
      <point x="110" y="51"/>
      <point x="152" y="51" type="curve" smooth="yes"/>
      <point x="188" y="51"/>
      <point x="202" y="78"/>
      <point x="220" y="164" type="curve"/>
    </contour>
  </outline>
</glyph>
<glyph name="Aring" format="1">
  <advance width="362"/>
  <unicode hex="00C5"/>
  <outline>
    <contour>
      <point x="333" y="0" type="line"/>
      <point x="264" y="0" type="line"/>
      <point x="236" y="184" type="line"/>
      <point x="124" y="184" type="line"/>
      <point x="96" y="0" type="line"/>
      <point x="29" y="0" type="line"/>
      <point x="139" y="658" type="line"/>
      <point x="108" y="674"/>
      <point x="87" y="706"/>
      <point x="87" y="743" type="curve" smooth="yes"/>
      <point x="87" y="795"/>
      <point x="127" y="836"/>
      <point x="181" y="836" type="curve" smooth="yes"/>
      <point x="235" y="836"/>
      <point x="275" y="795"/>
      <point x="275" y="743" type="curve" smooth="yes"/>
      <point x="275" y="706"/>
      <point x="254" y="674"/>
      <point x="223" y="658" type="curve"/>
    </contour>
    <contour>
      <point x="231" y="743" type="curve" smooth="yes"/>
      <point x="231" y="772"/>
      <point x="211" y="794"/>
      <point x="181" y="794" type="curve" smooth="yes"/>
      <point x="151" y="794"/>
      <point x="131" y="772"/>
      <point x="131" y="743" type="curve" smooth="yes"/>
      <point x="131" y="713"/>
      <point x="151" y="691"/>
      <point x="181" y="691" type="curve" smooth="yes"/>
      <point x="211" y="691"/>
      <point x="231" y="713"/>
    </contour>
    <contour>
      <point x="227" y="245" type="line"/>
      <point x="206" y="387" type="line" smooth="yes"/>
      <point x="194" y="465"/>
      <point x="186" y="527"/>
      <point x="180" y="595" type="curve"/>
      <point x="174" y="527"/>
      <point x="166" y="465"/>
      <point x="154" y="387" type="curve" smooth="yes"/>
      <point x="133" y="245" type="line"/>
    </contour>
  </outline>
</glyph>
<glyph name="AE" format="1">
  <advance width="502"/>
  <unicode hex="00C6"/>
  <outline>
    <contour>
      <point x="473" y="0" type="line"/>
      <point x="241" y="0" type="line"/>
      <point x="241" y="184" type="line"/>
      <point x="128" y="184" type="line"/>
      <point x="78" y="0" type="line"/>
      <point x="14" y="0" type="line"/>
      <point x="217" y="700" type="line"/>
      <point x="463" y="700" type="line"/>
      <point x="463" y="638" type="line"/>
      <point x="304" y="638" type="line"/>
      <point x="304" y="405" type="line"/>
      <point x="415" y="405" type="line"/>
      <point x="415" y="343" type="line"/>
      <point x="304" y="343" type="line"/>
      <point x="304" y="62" type="line"/>
      <point x="473" y="62" type="line"/>
    </contour>
    <contour>
      <point x="243" y="605" type="curve"/>
      <point x="235" y="571"/>
      <point x="219" y="504"/>
      <point x="207" y="463" type="curve" smooth="yes"/>
      <point x="145" y="245" type="line"/>
      <point x="241" y="245" type="line"/>
      <point x="241" y="471" type="line" smooth="yes"/>
      <point x="241" y="514"/>
      <point x="242" y="577"/>
    </contour>
  </outline>
</glyph>
<glyph name="Ccedilla" format="1">
  <advance width="346"/>
  <unicode hex="00C7"/>
  <outline>
    <contour>
      <point x="316" y="156" type="line"/>
      <point x="299" y="61"/>
      <point x="267" y="-5"/>
      <point x="190" y="-11" type="curve"/>
      <point x="175" y="-53" type="line"/>
      <point x="183" y="-47"/>
      <point x="192" y="-44"/>
      <point x="207" y="-44" type="curve" smooth="yes"/>
      <point x="240" y="-44"/>
      <point x="262" y="-69"/>
      <point x="262" y="-113" type="curve" smooth="yes"/>
      <point x="262" y="-169"/>
      <point x="220" y="-193"/>
      <point x="178" y="-193" type="curve" smooth="yes"/>
      <point x="153" y="-193"/>
      <point x="124" y="-181"/>
      <point x="100" y="-164" type="curve"/>
      <point x="116" y="-136" type="line"/>
      <point x="138" y="-151"/>
      <point x="159" y="-158"/>
      <point x="176" y="-158" type="curve" smooth="yes"/>
      <point x="202" y="-158"/>
      <point x="214" y="-141"/>
      <point x="214" y="-114" type="curve" smooth="yes"/>
      <point x="214" y="-91"/>
      <point x="205" y="-81"/>
      <point x="188" y="-81" type="curve" smooth="yes"/>
      <point x="178" y="-81"/>
      <point x="170" y="-84"/>
      <point x="161" y="-92" type="curve"/>
      <point x="130" y="-79" type="line"/>
      <point x="155" y="-8" type="line"/>
      <point x="71" y="10"/>
      <point x="42" y="133"/>
      <point x="42" y="350" type="curve" smooth="yes"/>
      <point x="42" y="582"/>
      <point x="79" y="711"/>
      <point x="181" y="711" type="curve" smooth="yes"/>
      <point x="261" y="711"/>
      <point x="295" y="645"/>
      <point x="314" y="538" type="curve"/>
      <point x="251" y="521" type="line"/>
      <point x="231" y="623"/>
      <point x="212" y="649"/>
      <point x="180" y="649" type="curve" smooth="yes"/>
      <point x="130" y="649"/>
      <point x="108" y="553"/>
      <point x="108" y="350" type="curve" smooth="yes"/>
      <point x="108" y="139"/>
      <point x="131" y="51"/>
      <point x="184" y="51" type="curve" smooth="yes"/>
      <point x="221" y="51"/>
      <point x="238" y="86"/>
      <point x="255" y="174" type="curve"/>
    </contour>
  </outline>
</glyph>
<glyph name="Eth" format="1">
  <advance width="376"/>
  <unicode hex="00D0"/>
  <outline>
    <contour>
      <point x="335" y="355" type="curve" smooth="yes"/>
      <point x="335" y="115"/>
      <point x="282" y="0"/>
      <point x="163" y="0" type="curve" smooth="yes"/>
      <point x="67" y="0" type="line"/>
      <point x="67" y="336" type="line"/>
      <point x="25" y="336" type="line"/>
      <point x="25" y="396" type="line"/>
      <point x="67" y="396" type="line"/>
      <point x="67" y="700" type="line"/>
      <point x="172" y="700" type="line" smooth="yes"/>
      <point x="299" y="700"/>
      <point x="335" y="572"/>
    </contour>
    <contour>
      <point x="270" y="352" type="curve" smooth="yes"/>
      <point x="270" y="551"/>
      <point x="237" y="639"/>
      <point x="171" y="639" type="curve" smooth="yes"/>
      <point x="129" y="639" type="line"/>
      <point x="129" y="396" type="line"/>
      <point x="195" y="396" type="line"/>
      <point x="195" y="336" type="line"/>
      <point x="129" y="336" type="line"/>
      <point x="129" y="61" type="line"/>
      <point x="168" y="61" type="line" smooth="yes"/>
      <point x="231" y="61"/>
      <point x="270" y="140"/>
    </contour>
  </outline>
</glyph>
<glyph name="Oslash" format="1">
  <advance width="374"/>
  <unicode hex="00D8"/>
  <outline>
    <contour>
      <point x="342" y="750" type="line"/>
      <point x="300" y="618" type="line"/>
      <point x="323" y="557"/>
      <point x="332" y="467"/>
      <point x="332" y="350" type="curve" smooth="yes"/>
      <point x="332" y="114"/>
      <point x="293" y="-11"/>
      <point x="187" y="-11" type="curve" smooth="yes"/>
      <point x="156" y="-11"/>
      <point x="130" y="0"/>
      <point x="110" y="21" type="curve"/>
      <point x="110" y="22"/>
      <point x="87" y="-50"/>
      <point x="87" y="-50" type="curve"/>
      <point x="32" y="-50" type="line"/>
      <point x="74" y="82" type="line"/>
      <point x="51" y="143"/>
      <point x="42" y="233"/>
      <point x="42" y="350" type="curve" smooth="yes"/>
      <point x="42" y="586"/>
      <point x="81" y="711"/>
      <point x="187" y="711" type="curve" smooth="yes"/>
      <point x="218" y="711"/>
      <point x="244" y="700"/>
      <point x="264" y="678" type="curve"/>
      <point x="287" y="750" type="line"/>
    </contour>
    <contour>
      <point x="240" y="602" type="line"/>
      <point x="226" y="636"/>
      <point x="208" y="652"/>
      <point x="186" y="652" type="curve" smooth="yes"/>
      <point x="133" y="652"/>
      <point x="105" y="560"/>
      <point x="105" y="350" type="curve" smooth="yes"/>
      <point x="105" y="291"/>
      <point x="107" y="242"/>
      <point x="112" y="201" type="curve"/>
    </contour>
    <contour>
      <point x="269" y="350" type="curve" smooth="yes"/>
      <point x="269" y="409"/>
      <point x="267" y="458"/>
      <point x="262" y="499" type="curve"/>
      <point x="134" y="98" type="line"/>
      <point x="148" y="64"/>
      <point x="166" y="48"/>
      <point x="188" y="48" type="curve" smooth="yes"/>
      <point x="241" y="48"/>
      <point x="269" y="140"/>
    </contour>
  </outline>
</glyph>
<glyph name="Thorn" format="1">
  <advance width="342"/>
  <unicode hex="00DE"/>
  <outline>
    <contour>
      <point x="313" y="366" type="curve" smooth="yes"/>
      <point x="313" y="227"/>
      <point x="235" y="169"/>
      <point x="152" y="169" type="curve" smooth="yes"/>
      <point x="121" y="169" type="line"/>
      <point x="121" y="0" type="line"/>
      <point x="57" y="0" type="line"/>
      <point x="57" y="700" type="line"/>
      <point x="121" y="700" type="line"/>
      <point x="121" y="551" type="line"/>
      <point x="157" y="551" type="line" smooth="yes"/>
      <point x="245" y="551"/>
      <point x="313" y="495"/>
    </contour>
    <contour>
      <point x="248" y="362" type="curve" smooth="yes"/>
      <point x="248" y="446"/>
      <point x="213" y="489"/>
      <point x="155" y="489" type="curve" smooth="yes"/>
      <point x="121" y="489" type="line"/>
      <point x="121" y="231" type="line"/>
      <point x="155" y="231" type="line" smooth="yes"/>
      <point x="213" y="231"/>
      <point x="248" y="277"/>
    </contour>
  </outline>
</glyph>
<glyph name="germandbls" format="1">
  <advance width="360"/>
  <unicode hex="00DF"/>
  <outline>
    <contour>
      <point x="323" y="226" type="curve" smooth="yes"/>
      <point x="323" y="68"/>
      <point x="283" y="0"/>
      <point x="169" y="0" type="curve" smooth="yes"/>
      <point x="159" y="0" type="line"/>
      <point x="159" y="59" type="line"/>
      <point x="172" y="59" type="line" smooth="yes"/>
      <point x="246" y="59"/>
      <point x="260" y="112"/>
      <point x="260" y="219" type="curve" smooth="yes"/>
      <point x="260" y="326"/>
      <point x="233" y="367"/>
      <point x="174" y="367" type="curve" smooth="yes"/>
      <point x="159" y="367" type="line"/>
      <point x="159" y="428" type="line"/>
      <point x="172" y="428" type="line" smooth="yes"/>
      <point x="213" y="428"/>
      <point x="231" y="459"/>
      <point x="231" y="548" type="curve" smooth="yes"/>
      <point x="231" y="623"/>
      <point x="215" y="665"/>
      <point x="170" y="665" type="curve" smooth="yes"/>
      <point x="128" y="665"/>
      <point x="114" y="628"/>
      <point x="114" y="549" type="curve" smooth="yes"/>
      <point x="114" y="-155" type="line"/>
      <point x="52" y="-193" type="line"/>
      <point x="52" y="546" type="line" smooth="yes"/>
      <point x="52" y="667"/>
      <point x="90" y="726"/>
      <point x="172" y="726" type="curve" smooth="yes"/>
      <point x="256" y="726"/>
      <point x="294" y="660"/>
      <point x="294" y="549" type="curve" smooth="yes"/>
      <point x="294" y="459"/>
      <point x="275" y="421"/>
      <point x="238" y="403" type="curve"/>
      <point x="294" y="386"/>
      <point x="323" y="338"/>
    </contour>
  </outline>
</glyph>
<glyph name="ae" format="1">
  <advance width="498"/>
  <unicode hex="00E6"/>
  <outline>
    <contour>
      <point x="460" y="246" type="curve"/>
      <point x="271" y="246" type="line"/>
      <point x="273" y="126"/>
      <point x="291" y="50"/>
      <point x="337" y="50" type="curve" smooth="yes"/>
      <point x="370" y="50"/>
      <point x="384" y="71"/>
      <point x="412" y="118" type="curve"/>
      <point x="455" y="84" type="line"/>
      <point x="427" y="31"/>
      <point x="395" y="-11"/>
      <point x="336" y="-11" type="curve" smooth="yes"/>
      <point x="299" y="-11"/>
      <point x="271" y="7"/>
      <point x="250" y="42" type="curve"/>
      <point x="219" y="8"/>
      <point x="187" y="-11"/>
      <point x="144" y="-11" type="curve" smooth="yes"/>
      <point x="64" y="-11"/>
      <point x="34" y="50"/>
      <point x="34" y="161" type="curve" smooth="yes"/>
      <point x="34" y="278"/>
      <point x="74" y="332"/>
      <point x="150" y="332" type="curve" smooth="yes"/>
      <point x="175" y="332"/>
      <point x="194" y="325"/>
      <point x="211" y="313" type="curve"/>
      <point x="211" y="405" type="line" smooth="yes"/>
      <point x="211" y="454"/>
      <point x="194" y="475"/>
      <point x="160" y="475" type="curve" smooth="yes"/>
      <point x="137" y="475"/>
      <point x="116" y="460"/>
      <point x="86" y="429" type="curve"/>
      <point x="49" y="476" type="line"/>
      <point x="86" y="513"/>
      <point x="124" y="536"/>
      <point x="164" y="536" type="curve" smooth="yes"/>
      <point x="217" y="536"/>
      <point x="240" y="513"/>
      <point x="253" y="471" type="curve"/>
      <point x="274" y="512"/>
      <point x="302" y="536"/>
      <point x="338" y="536" type="curve" smooth="yes"/>
      <point x="418" y="536"/>
      <point x="460" y="438"/>
      <point x="460" y="260" type="curve" smooth="yes"/>
      <point x="460" y="254"/>
      <point x="460" y="250"/>
    </contour>
    <contour>
      <point x="398" y="305" type="line"/>
      <point x="395" y="401"/>
      <point x="376" y="475"/>
      <point x="336" y="475" type="curve" smooth="yes"/>
      <point x="302" y="475"/>
      <point x="276" y="421"/>
      <point x="272" y="305" type="curve"/>
    </contour>
    <contour>
      <point x="228" y="95" type="curve"/>
      <point x="216" y="140"/>
      <point x="210" y="190"/>
      <point x="210" y="256" type="curve"/>
      <point x="192" y="268"/>
      <point x="175" y="273"/>
      <point x="152" y="273" type="curve" smooth="yes"/>
      <point x="108" y="273"/>
      <point x="97" y="232"/>
      <point x="97" y="163" type="curve" smooth="yes"/>
      <point x="97" y="85"/>
      <point x="112" y="48"/>
      <point x="156" y="48" type="curve" smooth="yes"/>
      <point x="183" y="48"/>
      <point x="207" y="66"/>
    </contour>
  </outline>
</glyph>
<glyph name="ccedilla" format="1">
  <advance width="305"/>
  <unicode hex="00E7"/>
  <outline>
    <contour>
      <point x="277" y="100" type="line"/>
      <point x="254" y="34"/>
      <point x="222" y="-7"/>
      <point x="172" y="-11" type="curve"/>
      <point x="157" y="-53" type="line"/>
      <point x="165" y="-47"/>
      <point x="174" y="-44"/>
      <point x="189" y="-44" type="curve" smooth="yes"/>
      <point x="222" y="-44"/>
      <point x="244" y="-69"/>
      <point x="244" y="-113" type="curve" smooth="yes"/>
      <point x="244" y="-169"/>
      <point x="202" y="-193"/>
      <point x="160" y="-193" type="curve" smooth="yes"/>
      <point x="135" y="-193"/>
      <point x="106" y="-181"/>
      <point x="82" y="-164" type="curve"/>
      <point x="98" y="-136" type="line"/>
      <point x="120" y="-151"/>
      <point x="141" y="-158"/>
      <point x="158" y="-158" type="curve" smooth="yes"/>
      <point x="184" y="-158"/>
      <point x="196" y="-141"/>
      <point x="196" y="-114" type="curve" smooth="yes"/>
      <point x="196" y="-91"/>
      <point x="187" y="-81"/>
      <point x="170" y="-81" type="curve" smooth="yes"/>
      <point x="160" y="-81"/>
      <point x="152" y="-84"/>
      <point x="143" y="-92" type="curve"/>
      <point x="112" y="-79" type="line"/>
      <point x="112" y="-79"/>
      <point x="138" y="-7"/>
      <point x="137" y="-7" type="curve"/>
      <point x="71" y="13"/>
      <point x="37" y="109"/>
      <point x="37" y="259" type="curve" smooth="yes"/>
      <point x="37" y="439"/>
      <point x="83" y="536"/>
      <point x="166" y="536" type="curve" smooth="yes"/>
      <point x="230" y="536"/>
      <point x="258" y="484"/>
      <point x="275" y="419" type="curve"/>
      <point x="220" y="391" type="line"/>
      <point x="206" y="440"/>
      <point x="196" y="475"/>
      <point x="164" y="475" type="curve" smooth="yes"/>
      <point x="124" y="475"/>
      <point x="100" y="410"/>
      <point x="100" y="260" type="curve" smooth="yes"/>
      <point x="100" y="135"/>
      <point x="117" y="50"/>
      <point x="167" y="50" type="curve" smooth="yes"/>
      <point x="193" y="50"/>
      <point x="205" y="73"/>
      <point x="227" y="130" type="curve"/>
    </contour>
  </outline>
</glyph>
<glyph name="eth" format="1">
  <advance width="344"/>
  <unicode hex="00F0"/>
  <outline>
    <contour>
      <point x="307" y="298" type="curve" smooth="yes"/>
      <point x="307" y="71"/>
      <point x="261" y="-11"/>
      <point x="172" y="-11" type="curve" smooth="yes"/>
      <point x="83" y="-11"/>
      <point x="37" y="91"/>
      <point x="37" y="236" type="curve" smooth="yes"/>
      <point x="37" y="381"/>
      <point x="84" y="484"/>
      <point x="167" y="484" type="curve" smooth="yes"/>
      <point x="209" y="484"/>
      <point x="233" y="461"/>
      <point x="252" y="415" type="curve"/>
      <point x="244" y="479"/>
      <point x="227" y="538"/>
      <point x="195" y="582" type="curve"/>
      <point x="151" y="533" type="line"/>
      <point x="110" y="569" type="line"/>
      <point x="157" y="621" type="line"/>
      <point x="140" y="634"/>
      <point x="121" y="644"/>
      <point x="99" y="650" type="curve"/>
      <point x="99" y="711" type="line"/>
      <point x="136" y="702"/>
      <point x="168" y="687"/>
      <point x="196" y="665" type="curve"/>
      <point x="237" y="711" type="line"/>
      <point x="278" y="675" type="line"/>
      <point x="233" y="625" type="line"/>
      <point x="282" y="559"/>
      <point x="307" y="455"/>
    </contour>
    <contour>
      <point x="244" y="236" type="curve" smooth="yes"/>
      <point x="244" y="353"/>
      <point x="220" y="423"/>
      <point x="171" y="423" type="curve" smooth="yes"/>
      <point x="122" y="423"/>
      <point x="100" y="353"/>
      <point x="100" y="236" type="curve" smooth="yes"/>
      <point x="100" y="119"/>
      <point x="124" y="50"/>
      <point x="173" y="50" type="curve" smooth="yes"/>
      <point x="222" y="50"/>
      <point x="244" y="119"/>
    </contour>
  </outline>
</glyph>
<glyph name="oslash" format="1">
  <advance width="344"/>
  <unicode hex="00F8"/>
  <outline>
    <contour>
      <point x="307" y="262" type="curve" smooth="yes"/>
      <point x="307" y="83"/>
      <point x="261" y="-11"/>
      <point x="172" y="-11" type="curve" smooth="yes"/>
      <point x="149" y="-11"/>
      <point x="129" y="-5"/>
      <point x="111" y="8" type="curve"/>
      <point x="91" y="-50" type="line"/>
      <point x="37" y="-50" type="line"/>
      <point x="73" y="54" type="line"/>
      <point x="49" y="100"/>
      <point x="37" y="170"/>
      <point x="37" y="262" type="curve" smooth="yes"/>
      <point x="37" y="441"/>
      <point x="83" y="536"/>
      <point x="172" y="536" type="curve" smooth="yes"/>
      <point x="195" y="536"/>
      <point x="215" y="530"/>
      <point x="233" y="517" type="curve"/>
      <point x="253" y="575" type="line"/>
      <point x="307" y="575" type="line"/>
      <point x="271" y="470" type="line"/>
      <point x="295" y="424"/>
      <point x="307" y="354"/>
    </contour>
    <contour>
      <point x="212" y="456" type="line"/>
      <point x="201" y="471"/>
      <point x="187" y="478"/>
      <point x="171" y="478" type="curve" smooth="yes"/>
      <point x="121" y="478"/>
      <point x="97" y="409"/>
      <point x="97" y="262" type="curve" smooth="yes"/>
      <point x="97" y="216"/>
      <point x="100" y="177"/>
      <point x="105" y="146" type="curve"/>
    </contour>
    <contour>
      <point x="247" y="262" type="curve" smooth="yes"/>
      <point x="247" y="309"/>
      <point x="244" y="348"/>
      <point x="239" y="379" type="curve"/>
      <point x="132" y="69" type="line"/>
      <point x="143" y="54"/>
      <point x="157" y="47"/>
      <point x="173" y="47" type="curve" smooth="yes"/>
      <point x="223" y="47"/>
      <point x="247" y="115"/>
    </contour>
  </outline>
</glyph>
<glyph name="thorn" format="1">
  <advance width="339"/>
  <unicode hex="00FE"/>
  <outline>
    <contour>
      <point x="302" y="264" type="curve" smooth="yes"/>
      <point x="302" y="89"/>
      <point x="272" y="-11"/>
      <point x="185" y="-11" type="curve" smooth="yes"/>
      <point x="156" y="-11"/>
      <point x="133" y="5"/>
      <point x="114" y="23" type="curve"/>
      <point x="114" y="-155" type="line"/>
      <point x="52" y="-193" type="line"/>
      <point x="52" y="691" type="line"/>
      <point x="114" y="729" type="line"/>
      <point x="114" y="498" type="line"/>
      <point x="133" y="519"/>
      <point x="160" y="536"/>
      <point x="189" y="536" type="curve" smooth="yes"/>
      <point x="277" y="536"/>
      <point x="302" y="431"/>
    </contour>
    <contour>
      <point x="239" y="262" type="curve" smooth="yes"/>
      <point x="239" y="411"/>
      <point x="223" y="477"/>
      <point x="177" y="477" type="curve" smooth="yes"/>
      <point x="155" y="477"/>
      <point x="133" y="464"/>
      <point x="114" y="446" type="curve"/>
      <point x="114" y="80" type="line"/>
      <point x="137" y="59"/>
      <point x="157" y="48"/>
      <point x="181" y="48" type="curve" smooth="yes"/>
      <point x="228" y="48"/>
      <point x="239" y="140"/>
    </contour>
  </outline>
</glyph>
<glyph name="Lslash" format="1">
  <advance width="302"/>
  <unicode hex="0141"/>
  <outline>
    <contour>
      <point x="279" y="0" type="line"/>
      <point x="67" y="0" type="line"/>
      <point x="67" y="262" type="line"/>
      <point x="30" y="228" type="line"/>
      <point x="30" y="310" type="line"/>
      <point x="67" y="343" type="line"/>
      <point x="67" y="700" type="line"/>
      <point x="129" y="700" type="line"/>
      <point x="129" y="393" type="line"/>
      <point x="197" y="453" type="line"/>
      <point x="197" y="371" type="line"/>
      <point x="129" y="312" type="line"/>
      <point x="129" y="62" type="line"/>
      <point x="279" y="62" type="line"/>
    </contour>
  </outline>
</glyph>
<glyph name="lslash" format="1">
  <advance width="216"/>
  <unicode hex="0142"/>
  <outline>
    <contour>
      <point x="187" y="374" type="line"/>
      <point x="138" y="327" type="line"/>
      <point x="138" y="0" type="line"/>
      <point x="78" y="0" type="line"/>
      <point x="78" y="275" type="line"/>
      <point x="29" y="228" type="line"/>
      <point x="29" y="311" type="line"/>
      <point x="78" y="358" type="line"/>
      <point x="78" y="691" type="line"/>
      <point x="138" y="729" type="line"/>
      <point x="138" y="410" type="line"/>
      <point x="187" y="457" type="line"/>
    </contour>
  </outline>
</glyph>
<glyph name="OE" format="1">
  <advance width="529"/>
  <unicode hex="0152"/>
  <outline>
    <contour>
      <point x="498" y="0" type="line"/>
      <point x="275" y="0" type="line"/>
      <point x="275" y="62" type="line"/>
      <point x="259" y="18"/>
      <point x="230" y="-11"/>
      <point x="187" y="-11" type="curve" smooth="yes"/>
      <point x="81" y="-11"/>
      <point x="42" y="114"/>
      <point x="42" y="350" type="curve" smooth="yes"/>
      <point x="42" y="586"/>
      <point x="81" y="711"/>
      <point x="187" y="711" type="curve" smooth="yes"/>
      <point x="231" y="711"/>
      <point x="259" y="681"/>
      <point x="275" y="638" type="curve"/>
      <point x="275" y="700" type="line"/>
      <point x="488" y="700" type="line"/>
      <point x="488" y="638" type="line"/>
      <point x="329" y="638" type="line"/>
      <point x="329" y="405" type="line"/>
      <point x="440" y="405" type="line"/>
      <point x="440" y="343" type="line"/>
      <point x="329" y="343" type="line"/>
      <point x="329" y="62" type="line"/>
      <point x="498" y="62" type="line"/>
    </contour>
    <contour>
      <point x="266" y="350" type="curve" smooth="yes"/>
      <point x="266" y="558"/>
      <point x="238" y="649"/>
      <point x="186" y="649" type="curve" smooth="yes"/>
      <point x="134" y="649"/>
      <point x="108" y="558"/>
      <point x="108" y="350" type="curve" smooth="yes"/>
      <point x="108" y="142"/>
      <point x="136" y="51"/>
      <point x="188" y="51" type="curve" smooth="yes"/>
      <point x="240" y="51"/>
      <point x="266" y="142"/>
    </contour>
  </outline>
</glyph>
<glyph name="oe" format="1">
  <advance width="530"/>
  <unicode hex="0153"/>
  <outline>
    <contour>
      <point x="492" y="241" type="curve"/>
      <point x="303" y="241" type="line"/>
      <point x="305" y="126"/>
      <point x="323" y="50"/>
      <point x="369" y="50" type="curve" smooth="yes"/>
      <point x="402" y="50"/>
      <point x="416" y="71"/>
      <point x="444" y="118" type="curve"/>
      <point x="487" y="84" type="line"/>
      <point x="459" y="31"/>
      <point x="427" y="-11"/>
      <point x="368" y="-11" type="curve" smooth="yes"/>
      <point x="321" y="-11"/>
      <point x="290" y="21"/>
      <point x="270" y="77" type="curve"/>
      <point x="250" y="21"/>
      <point x="223" y="-11"/>
      <point x="172" y="-11" type="curve" smooth="yes"/>
      <point x="83" y="-11"/>
      <point x="37" y="83"/>
      <point x="37" y="262" type="curve" smooth="yes"/>
      <point x="37" y="441"/>
      <point x="83" y="536"/>
      <point x="172" y="536" type="curve" smooth="yes"/>
      <point x="224" y="536"/>
      <point x="254" y="504"/>
      <point x="274" y="448" type="curve"/>
      <point x="294" y="504"/>
      <point x="322" y="536"/>
      <point x="370" y="536" type="curve" smooth="yes"/>
      <point x="450" y="536"/>
      <point x="492" y="439"/>
      <point x="492" y="255" type="curve" smooth="yes"/>
      <point x="492" y="249"/>
      <point x="492" y="245"/>
    </contour>
    <contour>
      <point x="430" y="300" type="line"/>
      <point x="427" y="401"/>
      <point x="408" y="475"/>
      <point x="368" y="475" type="curve" smooth="yes"/>
      <point x="334" y="475"/>
      <point x="308" y="422"/>
      <point x="304" y="300" type="curve"/>
    </contour>
    <contour>
      <point x="244" y="262" type="curve" smooth="yes"/>
      <point x="244" y="407"/>
      <point x="220" y="475"/>
      <point x="171" y="475" type="curve" smooth="yes"/>
      <point x="122" y="475"/>
      <point x="100" y="407"/>
      <point x="100" y="262" type="curve" smooth="yes"/>
      <point x="100" y="117"/>
      <point x="124" y="50"/>
      <point x="173" y="50" type="curve" smooth="yes"/>
      <point x="222" y="50"/>
      <point x="244" y="117"/>
    </contour>
  </outline>
</glyph>
<glyph name="florin" format="1">
  <advance width="250"/>
  <unicode hex="0192"/>
  <outline>
    <contour>
      <point x="223" y="647" type="line"/>
      <point x="211" y="651"/>
      <point x="189" y="654"/>
      <point x="174" y="654" type="curve" smooth="yes"/>
      <point x="148" y="654"/>
      <point x="133" y="639"/>
      <point x="133" y="603" type="curve" smooth="yes"/>
      <point x="133" y="525" type="line"/>
      <point x="207" y="525" type="line"/>
      <point x="207" y="468" type="line"/>
      <point x="133" y="468" type="line"/>
      <point x="133" y="-156" type="line"/>
      <point x="73" y="-192" type="line"/>
      <point x="73" y="468" type="line"/>
      <point x="29" y="468" type="line"/>
      <point x="29" y="525" type="line"/>
      <point x="73" y="525" type="line"/>
      <point x="73" y="600" type="line" smooth="yes"/>
      <point x="73" y="674"/>
      <point x="106" y="711"/>
      <point x="167" y="711" type="curve" smooth="yes"/>
      <point x="189" y="711"/>
      <point x="210" y="708"/>
      <point x="223" y="703" type="curve"/>
    </contour>
  </outline>
</glyph>
<glyph name="circumflex" format="1">
  <advance width="330"/>
  <unicode hex="02C6"/>
  <outline>
    <contour>
      <point x="280" y="595" type="line"/>
      <point x="225" y="595" type="line"/>
      <point x="164" y="693" type="line"/>
      <point x="103" y="595" type="line"/>
      <point x="50" y="595" type="line"/>
      <point x="138" y="755" type="line"/>
      <point x="192" y="755" type="line"/>
    </contour>
  </outline>
</glyph>
<glyph name="caron" format="1">
  <advance width="330"/>
  <unicode hex="02C7"/>
  <outline>
    <contour>
      <point x="280" y="755" type="line"/>
      <point x="192" y="595" type="line"/>
      <point x="138" y="595" type="line"/>
      <point x="50" y="755" type="line"/>
      <point x="105" y="755" type="line"/>
      <point x="166" y="657" type="line"/>
      <point x="227" y="755" type="line"/>
    </contour>
  </outline>
</glyph>
<glyph name="breve" format="1">
  <advance width="330"/>
  <unicode hex="02D8"/>
  <outline>
    <contour>
      <point x="283" y="731" type="line"/>
      <point x="280" y="646"/>
      <point x="237" y="595"/>
      <point x="164" y="595" type="curve" smooth="yes"/>
      <point x="96" y="595"/>
      <point x="50" y="646"/>
      <point x="47" y="731" type="curve"/>
      <point x="98" y="731" type="line"/>
      <point x="101" y="672"/>
      <point x="123" y="643"/>
      <point x="166" y="643" type="curve" smooth="yes"/>
      <point x="204" y="643"/>
      <point x="229" y="670"/>
      <point x="233" y="731" type="curve"/>
    </contour>
  </outline>
</glyph>
<glyph name="dotaccent" format="1">
  <advance width="330"/>
  <unicode hex="02D9"/>
  <outline>
    <contour>
      <point x="213" y="651" type="curve" smooth="yes"/>
      <point x="213" y="625"/>
      <point x="191" y="603"/>
      <point x="165" y="603" type="curve" smooth="yes"/>
      <point x="139" y="603"/>
      <point x="117" y="625"/>
      <point x="117" y="651" type="curve" smooth="yes"/>
      <point x="117" y="677"/>
      <point x="139" y="699"/>
      <point x="165" y="699" type="curve" smooth="yes"/>
      <point x="191" y="699"/>
      <point x="213" y="677"/>
    </contour>
  </outline>
</glyph>
<glyph name="ring" format="1">
  <advance width="330"/>
  <unicode hex="02DA"/>
  <outline>
    <contour>
      <point x="259" y="693" type="curve" smooth="yes"/>
      <point x="259" y="641"/>
      <point x="219" y="599"/>
      <point x="165" y="599" type="curve" smooth="yes"/>
      <point x="111" y="599"/>
      <point x="71" y="641"/>
      <point x="71" y="693" type="curve" smooth="yes"/>
      <point x="71" y="745"/>
      <point x="111" y="786"/>
      <point x="165" y="786" type="curve" smooth="yes"/>
      <point x="219" y="786"/>
      <point x="259" y="745"/>
    </contour>
    <contour>
      <point x="215" y="693" type="curve" smooth="yes"/>
      <point x="215" y="722"/>
      <point x="195" y="744"/>
      <point x="165" y="744" type="curve" smooth="yes"/>
      <point x="135" y="744"/>
      <point x="115" y="722"/>
      <point x="115" y="693" type="curve" smooth="yes"/>
      <point x="115" y="663"/>
      <point x="135" y="641"/>
      <point x="165" y="641" type="curve" smooth="yes"/>
      <point x="195" y="641"/>
      <point x="215" y="663"/>
    </contour>
  </outline>
</glyph>
<glyph name="ogonek" format="1">
  <advance width="330"/>
  <unicode hex="02DB"/>
  <outline>
    <contour>
      <point x="254" y="-154" type="line"/>
      <point x="227" y="-178"/>
      <point x="197" y="-193"/>
      <point x="166" y="-193" type="curve" smooth="yes"/>
      <point x="123" y="-193"/>
      <point x="98" y="-162"/>
      <point x="98" y="-120" type="curve" smooth="yes"/>
      <point x="98" y="-79"/>
      <point x="123" y="-36"/>
      <point x="158" y="0" type="curve"/>
      <point x="193" y="0" type="line"/>
      <point x="163" y="-44"/>
      <point x="151" y="-75"/>
      <point x="151" y="-106" type="curve" smooth="yes"/>
      <point x="151" y="-134"/>
      <point x="162" y="-149"/>
      <point x="182" y="-149" type="curve" smooth="yes"/>
      <point x="200" y="-149"/>
      <point x="216" y="-142"/>
      <point x="236" y="-126" type="curve"/>
    </contour>
  </outline>
</glyph>
<glyph name="tilde" format="1">
  <advance width="330"/>
  <unicode hex="02DC"/>
  <outline>
    <contour>
      <point x="290" y="709" type="line"/>
      <point x="290" y="634"/>
      <point x="258" y="599"/>
      <point x="220" y="599" type="curve" smooth="yes"/>
      <point x="202" y="599"/>
      <point x="186" y="605"/>
      <point x="168" y="621" type="curve" smooth="yes"/>
      <point x="134" y="652"/>
      <point x="128" y="658"/>
      <point x="113" y="658" type="curve" smooth="yes"/>
      <point x="100" y="658"/>
      <point x="90" y="646"/>
      <point x="86" y="601" type="curve"/>
      <point x="40" y="601" type="line"/>
      <point x="40" y="677"/>
      <point x="72" y="712"/>
      <point x="110" y="712" type="curve" smooth="yes"/>
      <point x="128" y="712"/>
      <point x="144" y="707"/>
      <point x="162" y="690" type="curve" smooth="yes"/>
      <point x="195" y="658"/>
      <point x="204" y="652"/>
      <point x="217" y="652" type="curve" smooth="yes"/>
      <point x="232" y="652"/>
      <point x="240" y="669"/>
      <point x="244" y="709" type="curve"/>
    </contour>
  </outline>
</glyph>
<glyph name="hungarumlaut" format="1">
  <advance width="330"/>
  <unicode hex="02DD"/>
  <outline>
    <contour>
      <point x="314" y="755" type="line"/>
      <point x="198" y="595" type="line"/>
      <point x="156" y="595" type="line"/>
      <point x="232" y="755" type="line"/>
    </contour>
    <contour>
      <point x="194" y="755" type="line"/>
      <point x="78" y="595" type="line"/>
      <point x="36" y="595" type="line"/>
      <point x="112" y="755" type="line"/>
    </contour>
  </outline>
</glyph>
<glyph name="endash" format="1">
  <advance width="283"/>
  <unicode hex="2013"/>
  <outline>
    <contour>
      <point x="250" y="335" type="line"/>
      <point x="33" y="335" type="line"/>
      <point x="33" y="396" type="line"/>
      <point x="250" y="396" type="line"/>
    </contour>
  </outline>
</glyph>
<glyph name="emdash" format="1">
  <advance width="363"/>
  <unicode hex="2014"/>
  <outline>
    <contour>
      <point x="330" y="335" type="line"/>
      <point x="33" y="335" type="line"/>
      <point x="33" y="396" type="line"/>
      <point x="330" y="396" type="line"/>
    </contour>
  </outline>
</glyph>
<glyph name="quoteleft" format="1">
  <advance width="160"/>
  <unicode hex="2018"/>
  <unicode hex="02BB"/>
  <outline>
    <contour>
      <point x="118" y="700" type="line"/>
      <point x="108" y="534" type="line"/>
      <point x="37" y="534" type="line"/>
      <point x="81" y="700" type="line"/>
    </contour>
  </outline>
</glyph>
<glyph name="quoteright" format="1">
  <advance width="160"/>
  <unicode hex="2019"/>
  <unicode hex="02BC"/>
  <outline>
    <contour>
      <point x="123" y="700" type="line"/>
      <point x="79" y="534" type="line"/>
      <point x="42" y="534" type="line"/>
      <point x="52" y="700" type="line"/>
    </contour>
  </outline>
</glyph>
<glyph name="quotesinglbase" format="1">
  <advance width="160"/>
  <unicode hex="201A"/>
  <outline>
    <contour>
      <point x="121" y="72" type="line"/>
      <point x="77" y="-94" type="line"/>
      <point x="40" y="-94" type="line"/>
      <point x="50" y="72" type="line"/>
    </contour>
  </outline>
</glyph>
<glyph name="quotedblleft" format="1">
  <advance width="290"/>
  <unicode hex="201C"/>
  <outline>
    <contour>
      <point x="248" y="700" type="line"/>
      <point x="238" y="534" type="line"/>
      <point x="167" y="534" type="line"/>
      <point x="211" y="700" type="line"/>
    </contour>
    <contour>
      <point x="118" y="700" type="line"/>
      <point x="108" y="534" type="line"/>
      <point x="37" y="534" type="line"/>
      <point x="81" y="700" type="line"/>
    </contour>
  </outline>
</glyph>
<glyph name="quotedblright" format="1">
  <advance width="290"/>
  <unicode hex="201D"/>
  <outline>
    <contour>
      <point x="253" y="700" type="line"/>
      <point x="209" y="534" type="line"/>
      <point x="172" y="534" type="line"/>
      <point x="182" y="700" type="line"/>
    </contour>
    <contour>
      <point x="123" y="700" type="line"/>
      <point x="79" y="534" type="line"/>
      <point x="42" y="534" type="line"/>
      <point x="52" y="700" type="line"/>
    </contour>
  </outline>
</glyph>
<glyph name="quotedblbase" format="1">
  <advance width="290"/>
  <unicode hex="201E"/>
  <outline>
    <contour>
      <point x="251" y="72" type="line"/>
      <point x="207" y="-94" type="line"/>
      <point x="170" y="-94" type="line"/>
      <point x="180" y="72" type="line"/>
    </contour>
    <contour>
      <point x="121" y="72" type="line"/>
      <point x="77" y="-94" type="line"/>
      <point x="40" y="-94" type="line"/>
      <point x="50" y="72" type="line"/>
    </contour>
  </outline>
</glyph>
<glyph name="dagger" format="1">
  <advance width="343"/>
  <unicode hex="2020"/>
  <outline>
    <contour>
      <point x="323" y="404" type="line"/>
      <point x="200" y="404" type="line"/>
      <point x="200" y="-100" type="line"/>
      <point x="143" y="-100" type="line"/>
      <point x="143" y="404" type="line"/>
      <point x="20" y="404" type="line"/>
      <point x="20" y="459" type="line"/>
      <point x="143" y="459" type="line"/>
      <point x="143" y="700" type="line"/>
      <point x="200" y="700" type="line"/>
      <point x="200" y="459" type="line"/>
      <point x="323" y="459" type="line"/>
    </contour>
  </outline>
</glyph>
<glyph name="daggerdbl" format="1">
  <advance width="343"/>
  <unicode hex="2021"/>
  <outline>
    <contour>
      <point x="323" y="141" type="line"/>
      <point x="200" y="141" type="line"/>
      <point x="200" y="-100" type="line"/>
      <point x="143" y="-100" type="line"/>
      <point x="143" y="141" type="line"/>
      <point x="20" y="141" type="line"/>
      <point x="20" y="196" type="line"/>
      <point x="143" y="196" type="line"/>
      <point x="143" y="404" type="line"/>
      <point x="20" y="404" type="line"/>
      <point x="20" y="459" type="line"/>
      <point x="143" y="459" type="line"/>
      <point x="143" y="700" type="line"/>
      <point x="200" y="700" type="line"/>
      <point x="200" y="459" type="line"/>
      <point x="323" y="459" type="line"/>
      <point x="323" y="404" type="line"/>
      <point x="200" y="404" type="line"/>
      <point x="200" y="196" type="line"/>
      <point x="323" y="196" type="line"/>
    </contour>
  </outline>
</glyph>
<glyph name="ellipsis" format="1">
  <advance width="444"/>
  <unicode hex="2026"/>
  <outline>
    <contour>
      <point x="414" y="33" type="curve" smooth="yes"/>
      <point x="414" y="8"/>
      <point x="398" y="-11"/>
      <point x="371" y="-11" type="curve" smooth="yes"/>
      <point x="346" y="-11"/>
      <point x="328" y="8"/>
      <point x="328" y="33" type="curve" smooth="yes"/>
      <point x="328" y="59"/>
      <point x="346" y="78"/>
      <point x="371" y="78" type="curve" smooth="yes"/>
      <point x="398" y="78"/>
      <point x="414" y="59"/>
    </contour>
    <contour>
      <point x="266" y="33" type="curve" smooth="yes"/>
      <point x="266" y="8"/>
      <point x="250" y="-11"/>
      <point x="223" y="-11" type="curve" smooth="yes"/>
      <point x="198" y="-11"/>
      <point x="180" y="8"/>
      <point x="180" y="33" type="curve" smooth="yes"/>
      <point x="180" y="59"/>
      <point x="198" y="78"/>
      <point x="223" y="78" type="curve" smooth="yes"/>
      <point x="250" y="78"/>
      <point x="266" y="59"/>
    </contour>
    <contour>
      <point x="118" y="33" type="curve" smooth="yes"/>
      <point x="118" y="8"/>
      <point x="102" y="-11"/>
      <point x="75" y="-11" type="curve" smooth="yes"/>
      <point x="50" y="-11"/>
      <point x="32" y="8"/>
      <point x="32" y="33" type="curve" smooth="yes"/>
      <point x="32" y="59"/>
      <point x="50" y="78"/>
      <point x="75" y="78" type="curve" smooth="yes"/>
      <point x="102" y="78"/>
      <point x="118" y="59"/>
    </contour>
  </outline>
</glyph>
<glyph name="perthousand" format="1">
  <advance width="875"/>
  <unicode hex="2030"/>
  <outline>
    <contour>
      <point x="241" y="494" type="curve" smooth="yes"/>
      <point x="241" y="346"/>
      <point x="201" y="275"/>
      <point x="137" y="275" type="curve" smooth="yes"/>
      <point x="73" y="275"/>
      <point x="35" y="344"/>
      <point x="35" y="492" type="curve" smooth="yes"/>
      <point x="35" y="640"/>
      <point x="75" y="711"/>
      <point x="139" y="711" type="curve" smooth="yes"/>
      <point x="203" y="711"/>
      <point x="241" y="642"/>
    </contour>
    <contour>
      <point x="505" y="700" type="line"/>
      <point x="178" y="0" type="line"/>
      <point x="118" y="0" type="line"/>
      <point x="445" y="700" type="line"/>
    </contour>
    <contour>
      <point x="845" y="208" type="curve" smooth="yes"/>
      <point x="845" y="60"/>
      <point x="805" y="-11"/>
      <point x="741" y="-11" type="curve" smooth="yes"/>
      <point x="677" y="-11"/>
      <point x="639" y="58"/>
      <point x="639" y="206" type="curve" smooth="yes"/>
      <point x="639" y="354"/>
      <point x="679" y="425"/>
      <point x="743" y="425" type="curve" smooth="yes"/>
      <point x="807" y="425"/>
      <point x="845" y="356"/>
    </contour>
    <contour>
      <point x="588" y="208" type="curve" smooth="yes"/>
      <point x="588" y="60"/>
      <point x="548" y="-11"/>
      <point x="484" y="-11" type="curve" smooth="yes"/>
      <point x="420" y="-11"/>
      <point x="382" y="58"/>
      <point x="382" y="206" type="curve" smooth="yes"/>
      <point x="382" y="354"/>
      <point x="422" y="425"/>
      <point x="486" y="425" type="curve" smooth="yes"/>
      <point x="550" y="425"/>
      <point x="588" y="356"/>
    </contour>
    <contour>
      <point x="183" y="492" type="curve" smooth="yes"/>
      <point x="183" y="602"/>
      <point x="167" y="655"/>
      <point x="137" y="655" type="curve" smooth="yes"/>
      <point x="107" y="655"/>
      <point x="93" y="604"/>
      <point x="93" y="494" type="curve" smooth="yes"/>
      <point x="93" y="384"/>
      <point x="109" y="331"/>
      <point x="139" y="331" type="curve" smooth="yes"/>
      <point x="169" y="331"/>
      <point x="183" y="382"/>
    </contour>
    <contour>
      <point x="787" y="206" type="curve" smooth="yes"/>
      <point x="787" y="316"/>
      <point x="771" y="369"/>
      <point x="741" y="369" type="curve" smooth="yes"/>
      <point x="711" y="369"/>
      <point x="697" y="318"/>
      <point x="697" y="208" type="curve" smooth="yes"/>
      <point x="697" y="98"/>
      <point x="713" y="45"/>
      <point x="743" y="45" type="curve" smooth="yes"/>
      <point x="773" y="45"/>
      <point x="787" y="96"/>
    </contour>
    <contour>
      <point x="530" y="206" type="curve" smooth="yes"/>
      <point x="530" y="316"/>
      <point x="514" y="369"/>
      <point x="484" y="369" type="curve" smooth="yes"/>
      <point x="454" y="369"/>
      <point x="440" y="318"/>
      <point x="440" y="208" type="curve" smooth="yes"/>
      <point x="440" y="98"/>
      <point x="456" y="45"/>
      <point x="486" y="45" type="curve" smooth="yes"/>
      <point x="516" y="45"/>
      <point x="530" y="96"/>
    </contour>
  </outline>
</glyph>
<glyph name="guilsinglleft" format="1">
  <advance width="238"/>
  <unicode hex="2039"/>
  <outline>
    <contour>
      <point x="212" y="0" type="line"/>
      <point x="146" y="0" type="line"/>
      <point x="13" y="262" type="line"/>
      <point x="146" y="525" type="line"/>
      <point x="212" y="525" type="line"/>
      <point x="79" y="263" type="line"/>
    </contour>
  </outline>
</glyph>
<glyph name="guilsinglright" format="1">
  <advance width="238"/>
  <unicode hex="203A"/>
  <outline>
    <contour>
      <point x="225" y="263" type="line"/>
      <point x="92" y="0" type="line"/>
      <point x="26" y="0" type="line"/>
      <point x="159" y="262" type="line"/>
      <point x="26" y="525" type="line"/>
      <point x="92" y="525" type="line"/>
    </contour>
  </outline>
</glyph>
<glyph name="fraction" format="1">
  <advance width="337"/>
  <unicode hex="2044"/>
  <outline>
    <contour>
      <point x="373" y="700" type="line"/>
      <point x="30" y="0" type="line"/>
      <point x="-36" y="0" type="line"/>
      <point x="307" y="700" type="line"/>
    </contour>
  </outline>
</glyph>
<glyph name="Euro" format="1">
  <advance width="335"/>
  <unicode hex="20AC"/>
  <outline>
    <contour>
      <point x="105" y="257" type="line"/>
      <point x="112" y="113"/>
      <point x="137" y="51"/>
      <point x="182" y="51" type="curve" smooth="yes"/>
      <point x="219" y="51"/>
      <point x="237" y="85"/>
      <point x="254" y="173" type="curve"/>
      <point x="312" y="158" type="line"/>
      <point x="294" y="58"/>
      <point x="262" y="-11"/>
      <point x="177" y="-11" type="curve" smooth="yes"/>
      <point x="74" y="-11"/>
      <point x="40" y="114"/>
      <point x="40" y="350" type="curve" smooth="yes"/>
      <point x="40" y="582"/>
      <point x="77" y="711"/>
      <point x="179" y="711" type="curve" smooth="yes"/>
      <point x="259" y="711"/>
      <point x="292" y="644"/>
      <point x="311" y="537" type="curve"/>
      <point x="251" y="521" type="line"/>
      <point x="231" y="623"/>
      <point x="210" y="649"/>
      <point x="178" y="649" type="curve" smooth="yes"/>
      <point x="137" y="649"/>
      <point x="113" y="585"/>
      <point x="106" y="452" type="curve"/>
      <point x="240" y="452" type="line"/>
      <point x="240" y="397" type="line"/>
      <point x="103" y="397" type="line"/>
      <point x="103" y="382"/>
      <point x="103" y="367"/>
      <point x="103" y="350" type="curve" smooth="yes"/>
      <point x="103" y="337"/>
      <point x="103" y="324"/>
      <point x="103" y="312" type="curve"/>
      <point x="240" y="312" type="line"/>
      <point x="240" y="257" type="line"/>
    </contour>
  </outline>
</glyph>
<glyph name="uni2117" format="1">
  <advance width="483"/>
  <unicode hex="2117"/>
  <outline>
    <contour>
      <point x="446" y="350" type="curve" smooth="yes"/>
      <point x="446" y="135"/>
      <point x="374" y="-11"/>
      <point x="241" y="-11" type="curve" smooth="yes"/>
      <point x="108" y="-11"/>
      <point x="37" y="135"/>
      <point x="37" y="350" type="curve" smooth="yes"/>
      <point x="37" y="565"/>
      <point x="108" y="711"/>
      <point x="241" y="711" type="curve" smooth="yes"/>
      <point x="374" y="711"/>
      <point x="446" y="565"/>
    </contour>
    <contour>
      <point x="400" y="350" type="curve" smooth="yes"/>
      <point x="400" y="537"/>
      <point x="352" y="667"/>
      <point x="241" y="667" type="curve" smooth="yes"/>
      <point x="130" y="667"/>
      <point x="83" y="537"/>
      <point x="83" y="350" type="curve" smooth="yes"/>
      <point x="83" y="163"/>
      <point x="130" y="33"/>
      <point x="241" y="33" type="curve" smooth="yes"/>
      <point x="352" y="33"/>
      <point x="400" y="163"/>
    </contour>
    <contour>
      <point x="330" y="438" type="curve" smooth="yes"/>
      <point x="330" y="358"/>
      <point x="284" y="326"/>
      <point x="235" y="326" type="curve" smooth="yes"/>
      <point x="223" y="326" type="line"/>
      <point x="223" y="152" type="line"/>
      <point x="177" y="152" type="line"/>
      <point x="177" y="544" type="line"/>
      <point x="238" y="544" type="line" smooth="yes"/>
      <point x="290" y="544"/>
      <point x="330" y="512"/>
    </contour>
    <contour>
      <point x="284" y="438" type="curve" smooth="yes"/>
      <point x="284" y="484"/>
      <point x="266" y="501"/>
      <point x="237" y="501" type="curve" smooth="yes"/>
      <point x="223" y="501" type="line"/>
      <point x="223" y="369" type="line"/>
      <point x="237" y="369" type="line" smooth="yes"/>
      <point x="267" y="369"/>
      <point x="284" y="391"/>
    </contour>
  </outline>
</glyph>
<glyph name="trademark" format="1">
  <advance width="435"/>
  <unicode hex="2122"/>
  <outline>
    <contour>
      <point x="168" y="661" type="line"/>
      <point x="110" y="661" type="line"/>
      <point x="110" y="306" type="line"/>
      <point x="69" y="306" type="line"/>
      <point x="69" y="661" type="line"/>
      <point x="12" y="661" type="line"/>
      <point x="12" y="700" type="line"/>
      <point x="168" y="700" type="line"/>
    </contour>
    <contour>
      <point x="404" y="306" type="line"/>
      <point x="366" y="306" type="line"/>
      <point x="366" y="519" type="line" smooth="yes"/>
      <point x="366" y="536"/>
      <point x="366" y="550"/>
      <point x="366" y="565" type="curve"/>
      <point x="364" y="551"/>
      <point x="361" y="536"/>
      <point x="357" y="518" type="curve" smooth="yes"/>
      <point x="306" y="297" type="line"/>
      <point x="255" y="518" type="line" smooth="yes"/>
      <point x="251" y="535"/>
      <point x="248" y="549"/>
      <point x="246" y="562" type="curve"/>
      <point x="246" y="549"/>
      <point x="246" y="536"/>
      <point x="246" y="519" type="curve" smooth="yes"/>
      <point x="246" y="306" type="line"/>
      <point x="208" y="306" type="line"/>
      <point x="208" y="700" type="line"/>
      <point x="251" y="700" type="line"/>
      <point x="294" y="512" type="line" smooth="yes"/>
      <point x="301" y="483"/>
      <point x="303" y="460"/>
      <point x="306" y="440" type="curve"/>
      <point x="309" y="461"/>
      <point x="313" y="484"/>
      <point x="319" y="512" type="curve" smooth="yes"/>
      <point x="360" y="700" type="line"/>
      <point x="404" y="700" type="line"/>
    </contour>
  </outline>
</glyph>
<glyph name="arrowleft" format="1">
  <advance width="355"/>
  <unicode hex="2190"/>
  <outline>
    <contour>
      <point x="330" y="318" type="line"/>
      <point x="127" y="318" type="line"/>
      <point x="151" y="254" type="line"/>
      <point x="153" y="250"/>
      <point x="152" y="247"/>
      <point x="150" y="246" type="curve"/>
      <point x="147" y="245"/>
      <point x="146" y="246"/>
      <point x="143" y="248" type="curve" smooth="yes"/>
      <point x="10" y="345" type="line"/>
      <point x="143" y="442" type="line" smooth="yes"/>
      <point x="146" y="444"/>
      <point x="147" y="445"/>
      <point x="150" y="444" type="curve"/>
      <point x="152" y="443"/>
      <point x="153" y="440"/>
      <point x="151" y="436" type="curve"/>
      <point x="127" y="372" type="line"/>
      <point x="330" y="372" type="line"/>
    </contour>
  </outline>
</glyph>
<glyph name="arrowup" format="1">
  <advance width="284"/>
  <unicode hex="2191"/>
  <outline>
    <contour>
      <point x="241" y="575" type="curve"/>
      <point x="240" y="573"/>
      <point x="237" y="572"/>
      <point x="233" y="574" type="curve"/>
      <point x="171" y="597" type="line"/>
      <point x="171" y="0" type="line"/>
      <point x="113" y="0" type="line"/>
      <point x="113" y="597" type="line"/>
      <point x="51" y="574" type="line"/>
      <point x="47" y="572"/>
      <point x="44" y="573"/>
      <point x="43" y="575" type="curve"/>
      <point x="42" y="578"/>
      <point x="43" y="579"/>
      <point x="45" y="582" type="curve" smooth="yes"/>
      <point x="142" y="715" type="line"/>
      <point x="239" y="582" type="line" smooth="yes"/>
      <point x="241" y="579"/>
      <point x="242" y="578"/>
    </contour>
  </outline>
</glyph>
<glyph name="arrowright" format="1">
  <advance width="355"/>
  <unicode hex="2192"/>
  <outline>
    <contour>
      <point x="345" y="345" type="line"/>
      <point x="212" y="248" type="line" smooth="yes"/>
      <point x="209" y="246"/>
      <point x="208" y="245"/>
      <point x="205" y="246" type="curve"/>
      <point x="203" y="247"/>
      <point x="202" y="250"/>
      <point x="204" y="254" type="curve"/>
      <point x="228" y="318" type="line"/>
      <point x="25" y="318" type="line"/>
      <point x="25" y="372" type="line"/>
      <point x="228" y="372" type="line"/>
      <point x="204" y="436" type="line"/>
      <point x="202" y="440"/>
      <point x="203" y="443"/>
      <point x="205" y="444" type="curve"/>
      <point x="208" y="445"/>
      <point x="209" y="444"/>
      <point x="212" y="442" type="curve" smooth="yes"/>
    </contour>
  </outline>
</glyph>
<glyph name="arrowdown" format="1">
  <advance width="284"/>
  <unicode hex="2193"/>
  <outline>
    <contour>
      <point x="241" y="125" type="curve"/>
      <point x="242" y="122"/>
      <point x="241" y="121"/>
      <point x="239" y="118" type="curve" smooth="yes"/>
      <point x="142" y="-15" type="line"/>
      <point x="45" y="118" type="line" smooth="yes"/>
      <point x="43" y="121"/>
      <point x="42" y="122"/>
      <point x="43" y="125" type="curve"/>
      <point x="44" y="127"/>
      <point x="47" y="128"/>
      <point x="51" y="126" type="curve"/>
      <point x="113" y="103" type="line"/>
      <point x="113" y="700" type="line"/>
      <point x="171" y="700" type="line"/>
      <point x="171" y="103" type="line"/>
      <point x="233" y="126" type="line"/>
      <point x="237" y="128"/>
      <point x="240" y="127"/>
    </contour>
  </outline>
</glyph>
<glyph name="arrowboth" format="1">
  <advance width="490"/>
  <unicode hex="2194"/>
  <outline>
    <contour>
      <point x="480" y="345" type="line"/>
      <point x="347" y="248" type="line" smooth="yes"/>
      <point x="344" y="246"/>
      <point x="343" y="245"/>
      <point x="340" y="246" type="curve"/>
      <point x="338" y="247"/>
      <point x="337" y="250"/>
      <point x="339" y="254" type="curve"/>
      <point x="363" y="318" type="line"/>
      <point x="127" y="318" type="line"/>
      <point x="151" y="254" type="line"/>
      <point x="153" y="250"/>
      <point x="152" y="247"/>
      <point x="150" y="246" type="curve"/>
      <point x="147" y="245"/>
      <point x="146" y="246"/>
      <point x="143" y="248" type="curve" smooth="yes"/>
      <point x="10" y="345" type="line"/>
      <point x="143" y="442" type="line" smooth="yes"/>
      <point x="146" y="444"/>
      <point x="147" y="445"/>
      <point x="150" y="444" type="curve"/>
      <point x="152" y="443"/>
      <point x="153" y="440"/>
      <point x="151" y="436" type="curve"/>
      <point x="127" y="372" type="line"/>
      <point x="363" y="372" type="line"/>
      <point x="339" y="436" type="line"/>
      <point x="337" y="440"/>
      <point x="338" y="443"/>
      <point x="340" y="444" type="curve"/>
      <point x="343" y="445"/>
      <point x="344" y="444"/>
      <point x="347" y="442" type="curve" smooth="yes"/>
    </contour>
  </outline>
</glyph>
<glyph name="arrowupdn" format="1">
  <advance width="284"/>
  <unicode hex="2195"/>
  <outline>
    <contour>
      <point x="241" y="125" type="curve"/>
      <point x="242" y="122"/>
      <point x="241" y="121"/>
      <point x="239" y="118" type="curve" smooth="yes"/>
      <point x="142" y="-15" type="line"/>
      <point x="45" y="118" type="line" smooth="yes"/>
      <point x="43" y="121"/>
      <point x="42" y="122"/>
      <point x="43" y="125" type="curve"/>
      <point x="44" y="127"/>
      <point x="47" y="128"/>
      <point x="51" y="126" type="curve"/>
      <point x="113" y="103" type="line"/>
      <point x="113" y="597" type="line"/>
      <point x="51" y="574" type="line"/>
      <point x="47" y="572"/>
      <point x="44" y="573"/>
      <point x="43" y="575" type="curve"/>
      <point x="42" y="578"/>
      <point x="43" y="579"/>
      <point x="45" y="582" type="curve" smooth="yes"/>
      <point x="142" y="715" type="line"/>
      <point x="239" y="582" type="line" smooth="yes"/>
      <point x="241" y="579"/>
      <point x="242" y="578"/>
      <point x="241" y="575" type="curve"/>
      <point x="240" y="573"/>
      <point x="237" y="572"/>
      <point x="233" y="574" type="curve"/>
      <point x="171" y="597" type="line"/>
      <point x="171" y="103" type="line"/>
      <point x="233" y="126" type="line"/>
      <point x="237" y="128"/>
      <point x="240" y="127"/>
    </contour>
  </outline>
</glyph>
<glyph name="radical" format="1">
  <advance width="350"/>
  <unicode hex="221A"/>
  <outline>
    <contour>
      <point x="342" y="700" type="line"/>
      <point x="190" y="0" type="line"/>
      <point x="128" y="0" type="line"/>
      <point x="13" y="340" type="line"/>
      <point x="84" y="340" type="line"/>
      <point x="116" y="228" type="line" smooth="yes"/>
      <point x="127" y="188"/>
      <point x="147" y="116"/>
      <point x="156" y="72" type="curve"/>
      <point x="161" y="117"/>
      <point x="177" y="192"/>
      <point x="185" y="233" type="curve" smooth="yes"/>
      <point x="277" y="700" type="line"/>
    </contour>
  </outline>
</glyph>
<glyph name="apple" format="1">
  <advance width="490"/>
  <unicode hex="F8FF"/>
  <outline>
    <contour>
      <point x="480" y="345" type="line"/>
      <point x="347" y="248" type="line" smooth="yes"/>
      <point x="344" y="246"/>
      <point x="343" y="245"/>
      <point x="340" y="246" type="curve"/>
      <point x="338" y="247"/>
      <point x="337" y="250"/>
      <point x="339" y="254" type="curve"/>
      <point x="363" y="318" type="line"/>
      <point x="272" y="318" type="line"/>
      <point x="272" y="102" type="line"/>
      <point x="336" y="126" type="line"/>
      <point x="340" y="128"/>
      <point x="343" y="127"/>
      <point x="344" y="125" type="curve"/>
      <point x="345" y="122"/>
      <point x="344" y="121"/>
      <point x="342" y="118" type="curve" smooth="yes"/>
      <point x="245" y="-15" type="line"/>
      <point x="148" y="118" type="line" smooth="yes"/>
      <point x="146" y="121"/>
      <point x="145" y="122"/>
      <point x="146" y="125" type="curve"/>
      <point x="147" y="127"/>
      <point x="150" y="128"/>
      <point x="154" y="126" type="curve"/>
      <point x="218" y="102" type="line"/>
      <point x="218" y="318" type="line"/>
      <point x="127" y="318" type="line"/>
      <point x="151" y="254" type="line"/>
      <point x="153" y="250"/>
      <point x="152" y="247"/>
      <point x="150" y="246" type="curve"/>
      <point x="147" y="245"/>
      <point x="146" y="246"/>
      <point x="143" y="248" type="curve" smooth="yes"/>
      <point x="10" y="345" type="line"/>
      <point x="143" y="442" type="line" smooth="yes"/>
      <point x="146" y="444"/>
      <point x="147" y="445"/>
      <point x="150" y="444" type="curve"/>
      <point x="152" y="443"/>
      <point x="153" y="440"/>
      <point x="151" y="436" type="curve"/>
      <point x="127" y="372" type="line"/>
      <point x="218" y="372" type="line"/>
      <point x="218" y="598" type="line"/>
      <point x="154" y="574" type="line"/>
      <point x="150" y="572"/>
      <point x="147" y="573"/>
      <point x="146" y="575" type="curve"/>
      <point x="145" y="578"/>
      <point x="146" y="579"/>
      <point x="148" y="582" type="curve" smooth="yes"/>
      <point x="245" y="715" type="line"/>
      <point x="342" y="582" type="line" smooth="yes"/>
      <point x="344" y="579"/>
      <point x="345" y="578"/>
      <point x="344" y="575" type="curve"/>
      <point x="343" y="573"/>
      <point x="340" y="572"/>
      <point x="336" y="574" type="curve"/>
      <point x="272" y="598" type="line"/>
      <point x="272" y="372" type="line"/>
      <point x="363" y="372" type="line"/>
      <point x="339" y="436" type="line"/>
      <point x="337" y="440"/>
      <point x="338" y="443"/>
      <point x="340" y="444" type="curve"/>
      <point x="343" y="445"/>
      <point x="344" y="444"/>
      <point x="347" y="442" type="curve" smooth="yes"/>
    </contour>
  </outline>
</glyph>
<glyph name="fi" format="1">
  <advance width="377"/>
  <unicode hex="FB01"/>
  <outline>
    <contour>
      <point x="332" y="675" type="curve" smooth="yes"/>
      <point x="332" y="651"/>
      <point x="314" y="628"/>
      <point x="291" y="628" type="curve" smooth="yes"/>
      <point x="268" y="628"/>
      <point x="248" y="651"/>
      <point x="248" y="675" type="curve" smooth="yes"/>
      <point x="248" y="701"/>
      <point x="268" y="723"/>
      <point x="291" y="723" type="curve" smooth="yes"/>
      <point x="314" y="723"/>
      <point x="332" y="701"/>
    </contour>
    <contour>
      <point x="203" y="660" type="line"/>
      <point x="191" y="664"/>
      <point x="177" y="667"/>
      <point x="162" y="667" type="curve" smooth="yes"/>
      <point x="139" y="667"/>
      <point x="123" y="652"/>
      <point x="123" y="618" type="curve" smooth="yes"/>
      <point x="123" y="525" type="line"/>
      <point x="189" y="525" type="line"/>
      <point x="189" y="468" type="line"/>
      <point x="123" y="468" type="line"/>
      <point x="123" y="0" type="line"/>
      <point x="63" y="0" type="line"/>
      <point x="63" y="468" type="line"/>
      <point x="19" y="468" type="line"/>
      <point x="19" y="525" type="line"/>
      <point x="63" y="525" type="line"/>
      <point x="63" y="613" type="line" smooth="yes"/>
      <point x="63" y="691"/>
      <point x="99" y="726"/>
      <point x="154" y="726" type="curve" smooth="yes"/>
      <point x="176" y="726"/>
      <point x="190" y="723"/>
      <point x="203" y="718" type="curve"/>
    </contour>
    <contour>
      <point x="320" y="0" type="line"/>
      <point x="258" y="0" type="line"/>
      <point x="258" y="525" type="line"/>
      <point x="320" y="525" type="line"/>
    </contour>
  </outline>
</glyph>
<glyph name="fl" format="1">
  <advance width="377"/>
  <unicode hex="FB02"/>
  <outline>
    <contour>
      <point x="320" y="0" type="line"/>
      <point x="258" y="0" type="line"/>
      <point x="258" y="691" type="line"/>
      <point x="320" y="729" type="line"/>
    </contour>
    <contour>
      <point x="203" y="660" type="line"/>
      <point x="191" y="664"/>
      <point x="177" y="667"/>
      <point x="162" y="667" type="curve" smooth="yes"/>
      <point x="139" y="667"/>
      <point x="123" y="652"/>
      <point x="123" y="618" type="curve" smooth="yes"/>
      <point x="123" y="525" type="line"/>
      <point x="189" y="525" type="line"/>
      <point x="189" y="468" type="line"/>
      <point x="123" y="468" type="line"/>
      <point x="123" y="0" type="line"/>
      <point x="63" y="0" type="line"/>
      <point x="63" y="468" type="line"/>
      <point x="19" y="468" type="line"/>
      <point x="19" y="525" type="line"/>
      <point x="63" y="525" type="line"/>
      <point x="63" y="613" type="line" smooth="yes"/>
      <point x="63" y="691"/>
      <point x="99" y="726"/>
      <point x="154" y="726" type="curve" smooth="yes"/>
      <point x="176" y="726"/>
      <point x="190" y="723"/>
      <point x="203" y="718" type="curve"/>
    </contour>
  </outline>
</glyph>
<glyph name="bullet" format="1">
  <advance width="294"/>
  <outline>
    <contour>
      <point x="222" y="366" type="curve" smooth="yes"/>
      <point x="222" y="325"/>
      <point x="188" y="291"/>
      <point x="147" y="291" type="curve" smooth="yes"/>
      <point x="106" y="291"/>
      <point x="72" y="325"/>
      <point x="72" y="366" type="curve" smooth="yes"/>
      <point x="72" y="407"/>
      <point x="106" y="442"/>
      <point x="147" y="442" type="curve" smooth="yes"/>
      <point x="188" y="442"/>
      <point x="222" y="407"/>
    </contour>
  </outline>
</glyph>
<glyph name="macron" format="1">
  <advance width="330"/>
  <outline>
    <contour>
      <point x="280" y="618" type="line"/>
      <point x="50" y="618" type="line"/>
      <point x="50" y="671" type="line"/>
      <point x="280" y="671" type="line"/>
    </contour>
  </outline>
</glyph>
<glyph name="registered" format="1">
  <advance width="483"/>
  <outline>
    <contour>
      <point x="446" y="350" type="curve" smooth="yes"/>
      <point x="446" y="135"/>
      <point x="374" y="-11"/>
      <point x="241" y="-11" type="curve" smooth="yes"/>
      <point x="108" y="-11"/>
      <point x="37" y="135"/>
      <point x="37" y="350" type="curve" smooth="yes"/>
      <point x="37" y="565"/>
      <point x="108" y="711"/>
      <point x="241" y="711" type="curve" smooth="yes"/>
      <point x="374" y="711"/>
      <point x="446" y="565"/>
    </contour>
    <contour>
      <point x="400" y="350" type="curve" smooth="yes"/>
      <point x="400" y="537"/>
      <point x="352" y="667"/>
      <point x="241" y="667" type="curve" smooth="yes"/>
      <point x="130" y="667"/>
      <point x="83" y="537"/>
      <point x="83" y="350" type="curve" smooth="yes"/>
      <point x="83" y="163"/>
      <point x="130" y="33"/>
      <point x="241" y="33" type="curve" smooth="yes"/>
      <point x="352" y="33"/>
      <point x="400" y="163"/>
    </contour>
    <contour>
      <point x="331" y="163" type="line"/>
      <point x="283" y="163" type="line"/>
      <point x="240" y="343" type="line"/>
      <point x="233" y="342"/>
      <point x="226" y="342"/>
      <point x="217" y="342" type="curve"/>
      <point x="217" y="163" type="line"/>
      <point x="171" y="163" type="line"/>
      <point x="171" y="555" type="line"/>
      <point x="232" y="555" type="line" smooth="yes"/>
      <point x="285" y="555"/>
      <point x="325" y="523"/>
      <point x="325" y="452" type="curve" smooth="yes"/>
      <point x="325" y="407"/>
      <point x="308" y="377"/>
      <point x="285" y="359" type="curve"/>
    </contour>
    <contour>
      <point x="278" y="451" type="curve" smooth="yes"/>
      <point x="278" y="493"/>
      <point x="261" y="512"/>
      <point x="231" y="512" type="curve" smooth="yes"/>
      <point x="217" y="512" type="line"/>
      <point x="217" y="383" type="line"/>
      <point x="231" y="383" type="line" smooth="yes"/>
      <point x="261" y="383"/>
      <point x="278" y="409"/>
    </contour>
  </outline>
</glyph>
